<?xml version="1.0" encoding="utf-8"?>
<!-- Generator: Adobe Illustrator 19.0.0, SVG Export Plug-In . SVG Version: 6.00 Build 0)  -->
<svg version="1.1" id="Layer_1" xmlns="http://www.w3.org/2000/svg" xmlns:xlink="http://www.w3.org/1999/xlink" x="0px" y="0px"
	 viewBox="0 0 612 530" style="enable-background:new 0 0 612 530;" xml:space="preserve">
<style type="text/css">
	.st0{fill:#7C2F0F;}
	.st1{fill:#585AA8;}
	.st2{clip-path:url(#XMLID_386_);}
	.st3{fill:#CCCCCC;}
	.st4{fill:none;stroke:#000000;stroke-width:0.5;stroke-miterlimit:10;}
	.st5{clip-path:url(#XMLID_395_);}
	.st6{clip-path:url(#XMLID_403_);}
	.st7{clip-path:url(#XMLID_406_);}
	.st8{clip-path:url(#XMLID_426_);}
	.st9{clip-path:url(#XMLID_437_);}
	.st10{clip-path:url(#XMLID_440_);}
	.st11{clip-path:url(#XMLID_468_);}
	.st12{clip-path:url(#XMLID_472_);}
	.st13{clip-path:url(#XMLID_475_);}
	.st14{clip-path:url(#XMLID_506_);}
	.st15{clip-path:url(#XMLID_509_);}
	.st16{clip-path:url(#XMLID_538_);}
	.st17{clip-path:url(#XMLID_542_);}
	.st18{clip-path:url(#XMLID_545_);}
	.st19{clip-path:url(#XMLID_555_);}
	.st20{fill:#2E2F33;}
	.st21{clip-path:url(#XMLID_558_);}
	.st22{fill:#FFFFFF;}
	.st23{font-family:'RobotoCondensed-Bold';}
	.st24{font-size:10px;}
	.st25{clip-path:url(#XMLID_566_);}
	.st26{clip-path:url(#XMLID_573_);}
	.st27{clip-path:url(#XMLID_577_);}
	.st28{clip-path:url(#XMLID_580_);}
	.st29{clip-path:url(#XMLID_610_);}
	.st30{fill:#FF0000;}
	.st31{clip-path:url(#XMLID_613_);}
	.st32{clip-path:url(#XMLID_627_);}
	.st33{clip-path:url(#XMLID_731_);}
	.st34{fill:#7D4573;}
	.st35{clip-path:url(#XMLID_743_);}
	.st36{clip-path:url(#XMLID_746_);}
	.st37{clip-path:url(#XMLID_749_);}
	.st38{font-size:9px;}
	.st39{clip-path:url(#XMLID_758_);fill:#CCCCCC;stroke:#000000;stroke-width:0.5;stroke-miterlimit:10;}
	.st40{clip-path:url(#XMLID_760_);}
	.st41{clip-path:url(#XMLID_849_);}
	.st42{font-size:8px;}
	.st43{fill:#272F33;stroke:#000000;stroke-width:0.25;stroke-miterlimit:10;}
	.st44{opacity:0.2;}
	.st45{fill:#E0C47A;}
	.st46{opacity:0.3;}
	.st47{fill:#5E7F00;}
	.st48{font-size:7px;}
	.st49{fill:#F7931E;}
	.st50{fill:#FFB80D;}
	.st51{font-family:'RobotoCondensed-Regular';}
	.st52{font-size:12px;}
	.st53{fill-rule:evenodd;clip-rule:evenodd;fill:#E42937;}
	.st54{fill-rule:evenodd;clip-rule:evenodd;fill:#FFFFFF;}
	.st55{fill-rule:evenodd;clip-rule:evenodd;fill:#E29C2B;}
</style>
<path id="XMLID_44_" class="st0" d="M274.8,84c-3.9,0-7,3.1-7,7v22.6v6.3c1.4-2.5,4-4.1,7-4.1s5.6,1.7,7,4.1v-6.3V91
	C281.8,87.1,278.7,84,274.8,84z"/>
<path id="XMLID_165_" class="st0" d="M274.8,376.1c-3,0-5.6-1.7-7-4.1v6.3v22.6c0,3.9,3.1,7,7,7c3.9,0,7-3.1,7-7v-22.6V372
	C280.5,374.5,277.9,376.1,274.8,376.1z"/>
<g id="XMLID_10_">
	<path id="XMLID_1307_" class="st1" d="M267.8,58h14c0-3.9-3.1-7-7-7C271,51,267.8,54.1,267.8,58z"/>
	<rect id="XMLID_1306_" x="267.8" y="58" class="st1" width="14" height="22.6"/>
	<path id="XMLID_1302_" class="st1" d="M267.8,86.9c1.4-2.5,4-4.1,7-4.1s5.6,1.7,7,4.1v-6.3h-14V86.9z"/>
</g>
<g id="XMLID_802_">
	<g id="XMLID_1127_">
		<g id="XMLID_1139_">
			<defs>
				<path id="XMLID_1140_" d="M254.3,155.9c-1.1,0-2,0.9-2,2v14c0,1.1,0.9,2,2,2h5c1.1,0,2-0.9,2-2v-14c0-1.1-0.9-2-2-2H254.3z"/>
			</defs>
			<clipPath id="XMLID_385_">
				<use xlink:href="#XMLID_1140_"  style="overflow:visible;"/>
			</clipPath>
		</g>
	</g>
	<g id="XMLID_1116_">
		<g id="XMLID_1119_">
			<defs>
				<path id="XMLID_1121_" d="M254.3,155.9c-1.1,0-2,0.9-2,2v14c0,1.1,0.9,2,2,2h5c1.1,0,2-0.9,2-2v-14c0-1.1-0.9-2-2-2H254.3z"/>
			</defs>
			<use xlink:href="#XMLID_1121_"  style="overflow:visible;fill:#CCCCCC;"/>
			<clipPath id="XMLID_386_">
				<use xlink:href="#XMLID_1121_"  style="overflow:visible;"/>
			</clipPath>
			<g id="XMLID_1122_" class="st2">
				<path id="XMLID_1126_" class="st3" d="M259.3,173.9c1.1,0,2-0.9,2-2v-14c0-1.1-0.9-2-2-2h-5c-1.1,0-2,0.9-2,2v14
					c0,1.1,0.9,2,2,2H259.3z"/>
				<path id="XMLID_1123_" class="st4" d="M259.3,173.9c1.1,0,2-0.9,2-2v-14c0-1.1-0.9-2-2-2h-5c-1.1,0-2,0.9-2,2v14
					c0,1.1,0.9,2,2,2H259.3z"/>
			</g>
			<use xlink:href="#XMLID_1121_"  style="overflow:visible;fill:none;stroke:#000000;stroke-width:0.5;stroke-miterlimit:10;"/>
		</g>
	</g>
	<g id="XMLID_1080_">
		<g id="XMLID_1081_">
			<defs>
				<path id="XMLID_1109_" d="M254.3,155.9c-1.1,0-2,0.9-2,2v14c0,1.1,0.9,2,2,2h5c1.1,0,2-0.9,2-2v-14c0-1.1-0.9-2-2-2H254.3z"/>
			</defs>
			<clipPath id="XMLID_387_">
				<use xlink:href="#XMLID_1109_"  style="overflow:visible;"/>
			</clipPath>
		</g>
	</g>
</g>
<g id="XMLID_855_">
	<g id="XMLID_1105_">
		<g id="XMLID_1106_">
			<defs>
				<path id="XMLID_1107_" d="M236.3,155.9c-1.1,0-2,0.9-2,2v14c0,1.1,0.9,2,2,2h5c1.1,0,2-0.9,2-2v-14c0-1.1-0.9-2-2-2H236.3z"/>
			</defs>
			<clipPath id="XMLID_394_">
				<use xlink:href="#XMLID_1107_"  style="overflow:visible;"/>
			</clipPath>
		</g>
	</g>
	<g id="XMLID_1088_">
		<g id="XMLID_1089_">
			<defs>
				<path id="XMLID_1090_" d="M236.3,155.9c-1.1,0-2,0.9-2,2v14c0,1.1,0.9,2,2,2h5c1.1,0,2-0.9,2-2v-14c0-1.1-0.9-2-2-2H236.3z"/>
			</defs>
			<use xlink:href="#XMLID_1090_"  style="overflow:visible;fill:#CCCCCC;"/>
			<clipPath id="XMLID_395_">
				<use xlink:href="#XMLID_1090_"  style="overflow:visible;"/>
			</clipPath>
			<g id="XMLID_1091_" class="st5">
				<path id="XMLID_1104_" class="st3" d="M241.3,173.9c1.1,0,2-0.9,2-2v-14c0-1.1-0.9-2-2-2h-5c-1.1,0-2,0.9-2,2v14
					c0,1.1,0.9,2,2,2H241.3z"/>
				<path id="XMLID_1092_" class="st4" d="M241.3,173.9c1.1,0,2-0.9,2-2v-14c0-1.1-0.9-2-2-2h-5c-1.1,0-2,0.9-2,2v14
					c0,1.1,0.9,2,2,2H241.3z"/>
			</g>
			<use xlink:href="#XMLID_1090_"  style="overflow:visible;fill:none;stroke:#000000;stroke-width:0.5;stroke-miterlimit:10;"/>
		</g>
	</g>
	<g id="XMLID_1045_">
		<g id="XMLID_1046_">
			<defs>
				<path id="XMLID_1078_" d="M236.3,155.9c-1.1,0-2,0.9-2,2v14c0,1.1,0.9,2,2,2h5c1.1,0,2-0.9,2-2v-14c0-1.1-0.9-2-2-2H236.3z"/>
			</defs>
			<clipPath id="XMLID_399_">
				<use xlink:href="#XMLID_1078_"  style="overflow:visible;"/>
			</clipPath>
		</g>
	</g>
</g>
<g id="XMLID_909_">
	<g id="XMLID_1074_">
		<g id="XMLID_1075_">
			<defs>
				<path id="XMLID_1076_" d="M218.3,155.9c-1.1,0-2,0.9-2,2v14c0,1.1,0.9,2,2,2h5c1.1,0,2-0.9,2-2v-14c0-1.1-0.9-2-2-2H218.3z"/>
			</defs>
			<clipPath id="XMLID_402_">
				<use xlink:href="#XMLID_1076_"  style="overflow:visible;"/>
			</clipPath>
		</g>
	</g>
	<g id="XMLID_1053_">
		<g id="XMLID_1069_">
			<defs>
				<path id="XMLID_1070_" d="M218.3,155.9c-1.1,0-2,0.9-2,2v14c0,1.1,0.9,2,2,2h5c1.1,0,2-0.9,2-2v-14c0-1.1-0.9-2-2-2H218.3z"/>
			</defs>
			<use xlink:href="#XMLID_1070_"  style="overflow:visible;fill:#CCCCCC;"/>
			<clipPath id="XMLID_403_">
				<use xlink:href="#XMLID_1070_"  style="overflow:visible;"/>
			</clipPath>
			<g id="XMLID_1071_" class="st6">
				<path id="XMLID_1073_" class="st3" d="M223.3,173.9c1.1,0,2-0.9,2-2v-14c0-1.1-0.9-2-2-2h-5c-1.1,0-2,0.9-2,2v14
					c0,1.1,0.9,2,2,2H223.3z"/>
				<path id="XMLID_1072_" class="st4" d="M223.3,173.9c1.1,0,2-0.9,2-2v-14c0-1.1-0.9-2-2-2h-5c-1.1,0-2,0.9-2,2v14
					c0,1.1,0.9,2,2,2H223.3z"/>
			</g>
			<use xlink:href="#XMLID_1070_"  style="overflow:visible;fill:none;stroke:#000000;stroke-width:0.5;stroke-miterlimit:10;"/>
		</g>
	</g>
	<g id="XMLID_1010_">
		<g id="XMLID_1011_">
			<defs>
				<path id="XMLID_1043_" d="M218.3,155.9c-1.1,0-2,0.9-2,2v14c0,1.1,0.9,2,2,2h5c1.1,0,2-0.9,2-2v-14c0-1.1-0.9-2-2-2H218.3z"/>
			</defs>
			<clipPath id="XMLID_404_">
				<use xlink:href="#XMLID_1043_"  style="overflow:visible;"/>
			</clipPath>
		</g>
	</g>
</g>
<g id="XMLID_1186_">
	<g id="XMLID_1039_">
		<g id="XMLID_1040_">
			<defs>
				<path id="XMLID_1041_" d="M200.3,155.9c-1.1,0-2,0.9-2,2v14c0,1.1,0.9,2,2,2h5c1.1,0,2-0.9,2-2v-14c0-1.1-0.9-2-2-2H200.3z"/>
			</defs>
			<clipPath id="XMLID_405_">
				<use xlink:href="#XMLID_1041_"  style="overflow:visible;"/>
			</clipPath>
		</g>
	</g>
	<g id="XMLID_1018_">
		<g id="XMLID_1034_">
			<defs>
				<path id="XMLID_1035_" d="M200.3,155.9c-1.1,0-2,0.9-2,2v14c0,1.1,0.9,2,2,2h5c1.1,0,2-0.9,2-2v-14c0-1.1-0.9-2-2-2H200.3z"/>
			</defs>
			<use xlink:href="#XMLID_1035_"  style="overflow:visible;fill:#CCCCCC;"/>
			<clipPath id="XMLID_406_">
				<use xlink:href="#XMLID_1035_"  style="overflow:visible;"/>
			</clipPath>
			<g id="XMLID_1036_" class="st7">
				<path id="XMLID_1038_" class="st3" d="M205.3,173.9c1.1,0,2-0.9,2-2v-14c0-1.1-0.9-2-2-2h-5c-1.1,0-2,0.9-2,2v14
					c0,1.1,0.9,2,2,2H205.3z"/>
				<path id="XMLID_1037_" class="st4" d="M205.3,173.9c1.1,0,2-0.9,2-2v-14c0-1.1-0.9-2-2-2h-5c-1.1,0-2,0.9-2,2v14
					c0,1.1,0.9,2,2,2H205.3z"/>
			</g>
			<use xlink:href="#XMLID_1035_"  style="overflow:visible;fill:none;stroke:#000000;stroke-width:0.5;stroke-miterlimit:10;"/>
		</g>
	</g>
	<g id="XMLID_976_">
		<g id="XMLID_979_">
			<defs>
				<path id="XMLID_1008_" d="M200.3,155.9c-1.1,0-2,0.9-2,2v14c0,1.1,0.9,2,2,2h5c1.1,0,2-0.9,2-2v-14c0-1.1-0.9-2-2-2H200.3z"/>
			</defs>
			<clipPath id="XMLID_422_">
				<use xlink:href="#XMLID_1008_"  style="overflow:visible;"/>
			</clipPath>
		</g>
	</g>
</g>
<g id="XMLID_1217_">
	<g id="XMLID_1004_">
		<g id="XMLID_1005_">
			<defs>
				<path id="XMLID_1006_" d="M182.3,155.9c-1.1,0-2,0.9-2,2v14c0,1.1,0.9,2,2,2h5c1.1,0,2-0.9,2-2v-14c0-1.1-0.9-2-2-2H182.3z"/>
			</defs>
			<clipPath id="XMLID_423_">
				<use xlink:href="#XMLID_1006_"  style="overflow:visible;"/>
			</clipPath>
		</g>
	</g>
	<g id="XMLID_996_">
		<g id="XMLID_999_">
			<defs>
				<path id="XMLID_1000_" d="M182.3,155.9c-1.1,0-2,0.9-2,2v14c0,1.1,0.9,2,2,2h5c1.1,0,2-0.9,2-2v-14c0-1.1-0.9-2-2-2H182.3z"/>
			</defs>
			<use xlink:href="#XMLID_1000_"  style="overflow:visible;fill:#CCCCCC;"/>
			<clipPath id="XMLID_426_">
				<use xlink:href="#XMLID_1000_"  style="overflow:visible;"/>
			</clipPath>
			<g id="XMLID_1001_" class="st8">
				<path id="XMLID_1003_" class="st3" d="M187.3,173.9c1.1,0,2-0.9,2-2v-14c0-1.1-0.9-2-2-2h-5c-1.1,0-2,0.9-2,2v14
					c0,1.1,0.9,2,2,2H187.3z"/>
				<path id="XMLID_1002_" class="st4" d="M187.3,173.9c1.1,0,2-0.9,2-2v-14c0-1.1-0.9-2-2-2h-5c-1.1,0-2,0.9-2,2v14
					c0,1.1,0.9,2,2,2H187.3z"/>
			</g>
			<use xlink:href="#XMLID_1000_"  style="overflow:visible;fill:none;stroke:#000000;stroke-width:0.5;stroke-miterlimit:10;"/>
		</g>
	</g>
	<g id="XMLID_944_">
		<g id="XMLID_946_">
			<defs>
				<path id="XMLID_974_" d="M182.3,155.9c-1.1,0-2,0.9-2,2v14c0,1.1,0.9,2,2,2h5c1.1,0,2-0.9,2-2v-14c0-1.1-0.9-2-2-2H182.3z"/>
			</defs>
			<clipPath id="XMLID_428_">
				<use xlink:href="#XMLID_974_"  style="overflow:visible;"/>
			</clipPath>
		</g>
	</g>
</g>
<g id="XMLID_1248_">
	<g id="XMLID_970_">
		<g id="XMLID_971_">
			<defs>
				<path id="XMLID_972_" d="M164.3,155.9c-1.1,0-2,0.9-2,2v14c0,1.1,0.9,2,2,2h5c1.1,0,2-0.9,2-2v-14c0-1.1-0.9-2-2-2H164.3z"/>
			</defs>
			<clipPath id="XMLID_433_">
				<use xlink:href="#XMLID_972_"  style="overflow:visible;"/>
			</clipPath>
		</g>
	</g>
	<g id="XMLID_964_">
		<g id="XMLID_965_">
			<defs>
				<path id="XMLID_966_" d="M164.3,155.9c-1.1,0-2,0.9-2,2v14c0,1.1,0.9,2,2,2h5c1.1,0,2-0.9,2-2v-14c0-1.1-0.9-2-2-2H164.3z"/>
			</defs>
			<use xlink:href="#XMLID_966_"  style="overflow:visible;fill:#CCCCCC;"/>
			<clipPath id="XMLID_437_">
				<use xlink:href="#XMLID_966_"  style="overflow:visible;"/>
			</clipPath>
			<g id="XMLID_967_" class="st9">
				<path id="XMLID_969_" class="st3" d="M169.3,173.9c1.1,0,2-0.9,2-2v-14c0-1.1-0.9-2-2-2h-5c-1.1,0-2,0.9-2,2v14c0,1.1,0.9,2,2,2
					H169.3z"/>
				<path id="XMLID_968_" class="st4" d="M169.3,173.9c1.1,0,2-0.9,2-2v-14c0-1.1-0.9-2-2-2h-5c-1.1,0-2,0.9-2,2v14c0,1.1,0.9,2,2,2
					H169.3z"/>
			</g>
			<use xlink:href="#XMLID_966_"  style="overflow:visible;fill:none;stroke:#000000;stroke-width:0.5;stroke-miterlimit:10;"/>
		</g>
	</g>
	<g id="XMLID_921_">
		<g id="XMLID_922_">
			<defs>
				<path id="XMLID_940_" d="M164.3,155.9c-1.1,0-2,0.9-2,2v14c0,1.1,0.9,2,2,2h5c1.1,0,2-0.9,2-2v-14c0-1.1-0.9-2-2-2H164.3z"/>
			</defs>
			<clipPath id="XMLID_438_">
				<use xlink:href="#XMLID_940_"  style="overflow:visible;"/>
			</clipPath>
		</g>
	</g>
</g>
<g id="XMLID_1281_">
	<g id="XMLID_936_">
		<g id="XMLID_937_">
			<defs>
				<path id="XMLID_938_" d="M146.3,155.9c-1.1,0-2,0.9-2,2v14c0,1.1,0.9,2,2,2h5c1.1,0,2-0.9,2-2v-14c0-1.1-0.9-2-2-2H146.3z"/>
			</defs>
			<clipPath id="XMLID_439_">
				<use xlink:href="#XMLID_938_"  style="overflow:visible;"/>
			</clipPath>
		</g>
	</g>
	<g id="XMLID_926_">
		<g id="XMLID_929_">
			<defs>
				<path id="XMLID_930_" d="M146.3,155.9c-1.1,0-2,0.9-2,2v14c0,1.1,0.9,2,2,2h5c1.1,0,2-0.9,2-2v-14c0-1.1-0.9-2-2-2H146.3z"/>
			</defs>
			<use xlink:href="#XMLID_930_"  style="overflow:visible;fill:#CCCCCC;"/>
			<clipPath id="XMLID_440_">
				<use xlink:href="#XMLID_930_"  style="overflow:visible;"/>
			</clipPath>
			<g id="XMLID_931_" class="st10">
				<path id="XMLID_935_" class="st3" d="M151.3,173.9c1.1,0,2-0.9,2-2v-14c0-1.1-0.9-2-2-2h-5c-1.1,0-2,0.9-2,2v14c0,1.1,0.9,2,2,2
					H151.3z"/>
				<path id="XMLID_932_" class="st4" d="M151.3,173.9c1.1,0,2-0.9,2-2v-14c0-1.1-0.9-2-2-2h-5c-1.1,0-2,0.9-2,2v14c0,1.1,0.9,2,2,2
					H151.3z"/>
			</g>
			<use xlink:href="#XMLID_930_"  style="overflow:visible;fill:none;stroke:#000000;stroke-width:0.5;stroke-miterlimit:10;"/>
		</g>
	</g>
	<g id="XMLID_864_">
		<g id="XMLID_865_">
			<defs>
				<path id="XMLID_919_" d="M146.3,155.9c-1.1,0-2,0.9-2,2v14c0,1.1,0.9,2,2,2h5c1.1,0,2-0.9,2-2v-14c0-1.1-0.9-2-2-2H146.3z"/>
			</defs>
			<clipPath id="XMLID_452_">
				<use xlink:href="#XMLID_919_"  style="overflow:visible;"/>
			</clipPath>
		</g>
	</g>
</g>
<g id="XMLID_499_">
	<g id="XMLID_911_">
		<g id="XMLID_916_">
			<defs>
				<path id="XMLID_917_" d="M272.3,155.9c-1.1,0-2,0.9-2,2v14c0,1.1,0.9,2,2,2h5c1.1,0,2-0.9,2-2v-14c0-1.1-0.9-2-2-2H272.3z"/>
			</defs>
			<clipPath id="XMLID_465_">
				<use xlink:href="#XMLID_917_"  style="overflow:visible;"/>
			</clipPath>
		</g>
	</g>
	<g id="XMLID_871_">
		<g id="XMLID_873_">
			<defs>
				<path id="XMLID_874_" d="M272.3,155.9c-1.1,0-2,0.9-2,2v14c0,1.1,0.9,2,2,2h5c1.1,0,2-0.9,2-2v-14c0-1.1-0.9-2-2-2H272.3z"/>
			</defs>
			<use xlink:href="#XMLID_874_"  style="overflow:visible;fill:#CCCCCC;"/>
			<clipPath id="XMLID_468_">
				<use xlink:href="#XMLID_874_"  style="overflow:visible;"/>
			</clipPath>
			<g id="XMLID_875_" class="st11">
				<path id="XMLID_904_" class="st3" d="M277.3,173.9c1.1,0,2-0.9,2-2v-14c0-1.1-0.9-2-2-2h-5c-1.1,0-2,0.9-2,2v14c0,1.1,0.9,2,2,2
					H277.3z"/>
				<path id="XMLID_903_" class="st4" d="M277.3,173.9c1.1,0,2-0.9,2-2v-14c0-1.1-0.9-2-2-2h-5c-1.1,0-2,0.9-2,2v14c0,1.1,0.9,2,2,2
					H277.3z"/>
			</g>
			<use xlink:href="#XMLID_874_"  style="overflow:visible;fill:none;stroke:#000000;stroke-width:0.5;stroke-miterlimit:10;"/>
		</g>
	</g>
	<g id="XMLID_831_">
		<g id="XMLID_832_">
			<defs>
				<path id="XMLID_862_" d="M272.3,155.9c-1.1,0-2,0.9-2,2v14c0,1.1,0.9,2,2,2h5c1.1,0,2-0.9,2-2v-14c0-1.1-0.9-2-2-2H272.3z"/>
			</defs>
			<clipPath id="XMLID_470_">
				<use xlink:href="#XMLID_862_"  style="overflow:visible;"/>
			</clipPath>
		</g>
	</g>
</g>
<g id="XMLID_83_">
	<g id="XMLID_858_">
		<g id="XMLID_859_">
			<defs>
				<path id="XMLID_860_" d="M121.8,198.4c0-1.1,0.9-2,2-2h14c1.1,0,2,0.9,2,2v5c0,1.1-0.9,2-2,2h-14c-1.1,0-2-0.9-2-2V198.4z"/>
			</defs>
			<clipPath id="XMLID_471_">
				<use xlink:href="#XMLID_860_"  style="overflow:visible;"/>
			</clipPath>
		</g>
	</g>
	<g id="XMLID_836_">
		<g id="XMLID_837_">
			<defs>
				<path id="XMLID_843_" d="M121.8,198.4c0-1.1,0.9-2,2-2h14c1.1,0,2,0.9,2,2v5c0,1.1-0.9,2-2,2h-14c-1.1,0-2-0.9-2-2V198.4z"/>
			</defs>
			<use xlink:href="#XMLID_843_"  style="overflow:visible;fill:#CCCCCC;"/>
			<clipPath id="XMLID_472_">
				<use xlink:href="#XMLID_843_"  style="overflow:visible;"/>
			</clipPath>
			<g id="XMLID_844_" class="st12">
				<path id="XMLID_857_" class="st3" d="M139.8,203.4c0,1.1-0.9,2-2,2h-14c-1.1,0-2-0.9-2-2v-5c0-1.1,0.9-2,2-2h14c1.1,0,2,0.9,2,2
					V203.4z"/>
				<path id="XMLID_856_" class="st4" d="M139.8,203.4c0,1.1-0.9,2-2,2h-14c-1.1,0-2-0.9-2-2v-5c0-1.1,0.9-2,2-2h14c1.1,0,2,0.9,2,2
					V203.4z"/>
			</g>
			<use xlink:href="#XMLID_843_"  style="overflow:visible;fill:none;stroke:#000000;stroke-width:0.5;stroke-miterlimit:10;"/>
		</g>
	</g>
	<g id="XMLID_807_">
		<g id="XMLID_808_">
			<defs>
				<path id="XMLID_829_" d="M121.8,198.4c0-1.1,0.9-2,2-2h14c1.1,0,2,0.9,2,2v5c0,1.1-0.9,2-2,2h-14c-1.1,0-2-0.9-2-2V198.4z"/>
			</defs>
			<clipPath id="XMLID_473_">
				<use xlink:href="#XMLID_829_"  style="overflow:visible;"/>
			</clipPath>
		</g>
	</g>
</g>
<g id="XMLID_160_">
	<g id="XMLID_819_">
		<g id="XMLID_820_">
			<defs>
				<path id="XMLID_822_" d="M121.8,216.4c0-1.1,0.9-2,2-2h14c1.1,0,2,0.9,2,2v5c0,1.1-0.9,2-2,2h-14c-1.1,0-2-0.9-2-2V216.4z"/>
			</defs>
			<clipPath id="XMLID_474_">
				<use xlink:href="#XMLID_822_"  style="overflow:visible;"/>
			</clipPath>
		</g>
	</g>
	<g id="XMLID_812_">
		<g id="XMLID_813_">
			<defs>
				<path id="XMLID_814_" d="M121.8,216.4c0-1.1,0.9-2,2-2h14c1.1,0,2,0.9,2,2v5c0,1.1-0.9,2-2,2h-14c-1.1,0-2-0.9-2-2V216.4z"/>
			</defs>
			<use xlink:href="#XMLID_814_"  style="overflow:visible;fill:#CCCCCC;"/>
			<clipPath id="XMLID_475_">
				<use xlink:href="#XMLID_814_"  style="overflow:visible;"/>
			</clipPath>
			<g id="XMLID_815_" class="st13">
				<path id="XMLID_818_" class="st3" d="M139.8,221.4c0,1.1-0.9,2-2,2h-14c-1.1,0-2-0.9-2-2v-5c0-1.1,0.9-2,2-2h14c1.1,0,2,0.9,2,2
					V221.4z"/>
				<path id="XMLID_817_" class="st4" d="M139.8,221.4c0,1.1-0.9,2-2,2h-14c-1.1,0-2-0.9-2-2v-5c0-1.1,0.9-2,2-2h14c1.1,0,2,0.9,2,2
					V221.4z"/>
			</g>
			<use xlink:href="#XMLID_814_"  style="overflow:visible;fill:none;stroke:#000000;stroke-width:0.5;stroke-miterlimit:10;"/>
		</g>
	</g>
	<g id="XMLID_786_">
		<g id="XMLID_787_">
			<defs>
				<path id="XMLID_805_" d="M121.8,216.4c0-1.1,0.9-2,2-2h14c1.1,0,2,0.9,2,2v5c0,1.1-0.9,2-2,2h-14c-1.1,0-2-0.9-2-2V216.4z"/>
			</defs>
			<clipPath id="XMLID_503_">
				<use xlink:href="#XMLID_805_"  style="overflow:visible;"/>
			</clipPath>
		</g>
	</g>
</g>
<g id="XMLID_194_">
	<g id="XMLID_800_">
		<g id="XMLID_801_">
			<defs>
				<path id="XMLID_803_" d="M121.8,234.4c0-1.1,0.9-2,2-2h14c1.1,0,2,0.9,2,2v5c0,1.1-0.9,2-2,2h-14c-1.1,0-2-0.9-2-2V234.4z"/>
			</defs>
			<clipPath id="XMLID_505_">
				<use xlink:href="#XMLID_803_"  style="overflow:visible;"/>
			</clipPath>
		</g>
	</g>
	<g id="XMLID_794_">
		<g id="XMLID_795_">
			<defs>
				<path id="XMLID_796_" d="M121.8,234.4c0-1.1,0.9-2,2-2h14c1.1,0,2,0.9,2,2v5c0,1.1-0.9,2-2,2h-14c-1.1,0-2-0.9-2-2V234.4z"/>
			</defs>
			<use xlink:href="#XMLID_796_"  style="overflow:visible;fill:#CCCCCC;"/>
			<clipPath id="XMLID_506_">
				<use xlink:href="#XMLID_796_"  style="overflow:visible;"/>
			</clipPath>
			<g id="XMLID_797_" class="st14">
				<path id="XMLID_799_" class="st3" d="M139.8,239.4c0,1.1-0.9,2-2,2h-14c-1.1,0-2-0.9-2-2v-5c0-1.1,0.9-2,2-2h14c1.1,0,2,0.9,2,2
					V239.4z"/>
				<path id="XMLID_798_" class="st4" d="M139.8,239.4c0,1.1-0.9,2-2,2h-14c-1.1,0-2-0.9-2-2v-5c0-1.1,0.9-2,2-2h14c1.1,0,2,0.9,2,2
					V239.4z"/>
			</g>
			<use xlink:href="#XMLID_796_"  style="overflow:visible;fill:none;stroke:#000000;stroke-width:0.5;stroke-miterlimit:10;"/>
		</g>
	</g>
	<g id="XMLID_766_">
		<g id="XMLID_767_">
			<defs>
				<path id="XMLID_783_" d="M121.8,234.4c0-1.1,0.9-2,2-2h14c1.1,0,2,0.9,2,2v5c0,1.1-0.9,2-2,2h-14c-1.1,0-2-0.9-2-2V234.4z"/>
			</defs>
			<clipPath id="XMLID_507_">
				<use xlink:href="#XMLID_783_"  style="overflow:visible;"/>
			</clipPath>
		</g>
	</g>
</g>
<g id="XMLID_228_">
	<g id="XMLID_779_">
		<g id="XMLID_780_">
			<defs>
				<path id="XMLID_781_" d="M121.8,252.4c0-1.1,0.9-2,2-2h14c1.1,0,2,0.9,2,2v5c0,1.1-0.9,2-2,2h-14c-1.1,0-2-0.9-2-2V252.4z"/>
			</defs>
			<clipPath id="XMLID_508_">
				<use xlink:href="#XMLID_781_"  style="overflow:visible;"/>
			</clipPath>
		</g>
	</g>
	<g id="XMLID_771_">
		<g id="XMLID_772_">
			<defs>
				<path id="XMLID_773_" d="M121.8,252.4c0-1.1,0.9-2,2-2h14c1.1,0,2,0.9,2,2v5c0,1.1-0.9,2-2,2h-14c-1.1,0-2-0.9-2-2V252.4z"/>
			</defs>
			<use xlink:href="#XMLID_773_"  style="overflow:visible;fill:#CCCCCC;"/>
			<clipPath id="XMLID_509_">
				<use xlink:href="#XMLID_773_"  style="overflow:visible;"/>
			</clipPath>
			<g id="XMLID_776_" class="st15">
				<path id="XMLID_778_" class="st3" d="M139.8,257.4c0,1.1-0.9,2-2,2h-14c-1.1,0-2-0.9-2-2v-5c0-1.1,0.9-2,2-2h14c1.1,0,2,0.9,2,2
					V257.4z"/>
				<path id="XMLID_777_" class="st4" d="M139.8,257.4c0,1.1-0.9,2-2,2h-14c-1.1,0-2-0.9-2-2v-5c0-1.1,0.9-2,2-2h14c1.1,0,2,0.9,2,2
					V257.4z"/>
			</g>
			<use xlink:href="#XMLID_773_"  style="overflow:visible;fill:none;stroke:#000000;stroke-width:0.5;stroke-miterlimit:10;"/>
		</g>
	</g>
	<g id="XMLID_726_">
		<g id="XMLID_733_">
			<defs>
				<path id="XMLID_756_" d="M121.8,252.4c0-1.1,0.9-2,2-2h14c1.1,0,2,0.9,2,2v5c0,1.1-0.9,2-2,2h-14c-1.1,0-2-0.9-2-2V252.4z"/>
			</defs>
			<clipPath id="XMLID_510_">
				<use xlink:href="#XMLID_756_"  style="overflow:visible;"/>
			</clipPath>
		</g>
	</g>
</g>
<g id="XMLID_262_">
	<g id="XMLID_752_">
		<g id="XMLID_753_">
			<defs>
				<path id="XMLID_754_" d="M121.8,270.4c0-1.1,0.9-2,2-2h14c1.1,0,2,0.9,2,2v5c0,1.1-0.9,2-2,2h-14c-1.1,0-2-0.9-2-2V270.4z"/>
			</defs>
			<clipPath id="XMLID_537_">
				<use xlink:href="#XMLID_754_"  style="overflow:visible;"/>
			</clipPath>
		</g>
	</g>
	<g id="XMLID_737_">
		<g id="XMLID_738_">
			<defs>
				<path id="XMLID_739_" d="M121.8,270.4c0-1.1,0.9-2,2-2h14c1.1,0,2,0.9,2,2v5c0,1.1-0.9,2-2,2h-14c-1.1,0-2-0.9-2-2V270.4z"/>
			</defs>
			<use xlink:href="#XMLID_739_"  style="overflow:visible;fill:#CCCCCC;"/>
			<clipPath id="XMLID_538_">
				<use xlink:href="#XMLID_739_"  style="overflow:visible;"/>
			</clipPath>
			<g id="XMLID_740_" class="st16">
				<path id="XMLID_751_" class="st3" d="M139.8,275.4c0,1.1-0.9,2-2,2h-14c-1.1,0-2-0.9-2-2v-5c0-1.1,0.9-2,2-2h14c1.1,0,2,0.9,2,2
					V275.4z"/>
				<path id="XMLID_741_" class="st4" d="M139.8,275.4c0,1.1-0.9,2-2,2h-14c-1.1,0-2-0.9-2-2v-5c0-1.1,0.9-2,2-2h14c1.1,0,2,0.9,2,2
					V275.4z"/>
			</g>
			<use xlink:href="#XMLID_739_"  style="overflow:visible;fill:none;stroke:#000000;stroke-width:0.5;stroke-miterlimit:10;"/>
		</g>
	</g>
	<g id="XMLID_709_">
		<g id="XMLID_710_">
			<defs>
				<path id="XMLID_724_" d="M121.8,270.4c0-1.1,0.9-2,2-2h14c1.1,0,2,0.9,2,2v5c0,1.1-0.9,2-2,2h-14c-1.1,0-2-0.9-2-2V270.4z"/>
			</defs>
			<clipPath id="XMLID_540_">
				<use xlink:href="#XMLID_724_"  style="overflow:visible;"/>
			</clipPath>
		</g>
	</g>
</g>
<g id="XMLID_296_">
	<g id="XMLID_720_">
		<g id="XMLID_721_">
			<defs>
				<path id="XMLID_722_" d="M121.8,288.4c0-1.1,0.9-2,2-2h14c1.1,0,2,0.9,2,2v5c0,1.1-0.9,2-2,2h-14c-1.1,0-2-0.9-2-2V288.4z"/>
			</defs>
			<clipPath id="XMLID_541_">
				<use xlink:href="#XMLID_722_"  style="overflow:visible;"/>
			</clipPath>
		</g>
	</g>
	<g id="XMLID_714_">
		<g id="XMLID_715_">
			<defs>
				<path id="XMLID_716_" d="M121.8,288.4c0-1.1,0.9-2,2-2h14c1.1,0,2,0.9,2,2v5c0,1.1-0.9,2-2,2h-14c-1.1,0-2-0.9-2-2V288.4z"/>
			</defs>
			<use xlink:href="#XMLID_716_"  style="overflow:visible;fill:#CCCCCC;"/>
			<clipPath id="XMLID_542_">
				<use xlink:href="#XMLID_716_"  style="overflow:visible;"/>
			</clipPath>
			<g id="XMLID_717_" class="st17">
				<path id="XMLID_719_" class="st3" d="M139.8,293.4c0,1.1-0.9,2-2,2h-14c-1.1,0-2-0.9-2-2v-5c0-1.1,0.9-2,2-2h14c1.1,0,2,0.9,2,2
					V293.4z"/>
				<path id="XMLID_718_" class="st4" d="M139.8,293.4c0,1.1-0.9,2-2,2h-14c-1.1,0-2-0.9-2-2v-5c0-1.1,0.9-2,2-2h14c1.1,0,2,0.9,2,2
					V293.4z"/>
			</g>
			<use xlink:href="#XMLID_716_"  style="overflow:visible;fill:none;stroke:#000000;stroke-width:0.5;stroke-miterlimit:10;"/>
		</g>
	</g>
	<g id="XMLID_692_">
		<g id="XMLID_693_">
			<defs>
				<path id="XMLID_707_" d="M121.8,288.4c0-1.1,0.9-2,2-2h14c1.1,0,2,0.9,2,2v5c0,1.1-0.9,2-2,2h-14c-1.1,0-2-0.9-2-2V288.4z"/>
			</defs>
			<clipPath id="XMLID_543_">
				<use xlink:href="#XMLID_707_"  style="overflow:visible;"/>
			</clipPath>
		</g>
	</g>
</g>
<g id="XMLID_330_">
	<g id="XMLID_703_">
		<g id="XMLID_704_">
			<defs>
				<path id="XMLID_705_" d="M121.8,306.4c0-1.1,0.9-2,2-2h14c1.1,0,2,0.9,2,2v5c0,1.1-0.9,2-2,2h-14c-1.1,0-2-0.9-2-2V306.4z"/>
			</defs>
			<clipPath id="XMLID_544_">
				<use xlink:href="#XMLID_705_"  style="overflow:visible;"/>
			</clipPath>
		</g>
	</g>
	<g id="XMLID_697_">
		<g id="XMLID_698_">
			<defs>
				<path id="XMLID_699_" d="M121.8,306.4c0-1.1,0.9-2,2-2h14c1.1,0,2,0.9,2,2v5c0,1.1-0.9,2-2,2h-14c-1.1,0-2-0.9-2-2V306.4z"/>
			</defs>
			<use xlink:href="#XMLID_699_"  style="overflow:visible;fill:#CCCCCC;"/>
			<clipPath id="XMLID_545_">
				<use xlink:href="#XMLID_699_"  style="overflow:visible;"/>
			</clipPath>
			<g id="XMLID_700_" class="st18">
				<path id="XMLID_702_" class="st3" d="M139.8,311.4c0,1.1-0.9,2-2,2h-14c-1.1,0-2-0.9-2-2v-5c0-1.1,0.9-2,2-2h14c1.1,0,2,0.9,2,2
					V311.4z"/>
				<path id="XMLID_701_" class="st4" d="M139.8,311.4c0,1.1-0.9,2-2,2h-14c-1.1,0-2-0.9-2-2v-5c0-1.1,0.9-2,2-2h14c1.1,0,2,0.9,2,2
					V311.4z"/>
			</g>
			<use xlink:href="#XMLID_699_"  style="overflow:visible;fill:none;stroke:#000000;stroke-width:0.5;stroke-miterlimit:10;"/>
		</g>
	</g>
	<g id="XMLID_675_">
		<g id="XMLID_676_">
			<defs>
				<path id="XMLID_690_" d="M121.8,306.4c0-1.1,0.9-2,2-2h14c1.1,0,2,0.9,2,2v5c0,1.1-0.9,2-2,2h-14c-1.1,0-2-0.9-2-2V306.4z"/>
			</defs>
			<clipPath id="XMLID_546_">
				<use xlink:href="#XMLID_690_"  style="overflow:visible;"/>
			</clipPath>
		</g>
	</g>
</g>
<g id="XMLID_398_">
	<g id="XMLID_686_">
		<g id="XMLID_687_">
			<defs>
				<path id="XMLID_688_" d="M121.8,180.4c0-1.1,0.9-2,2-2h14c1.1,0,2,0.9,2,2v5c0,1.1-0.9,2-2,2h-14c-1.1,0-2-0.9-2-2V180.4z"/>
			</defs>
			<clipPath id="XMLID_548_">
				<use xlink:href="#XMLID_688_"  style="overflow:visible;"/>
			</clipPath>
		</g>
	</g>
	<g id="XMLID_680_">
		<g id="XMLID_681_">
			<defs>
				<path id="XMLID_682_" d="M121.8,180.4c0-1.1,0.9-2,2-2h14c1.1,0,2,0.9,2,2v5c0,1.1-0.9,2-2,2h-14c-1.1,0-2-0.9-2-2V180.4z"/>
			</defs>
			<use xlink:href="#XMLID_682_"  style="overflow:visible;fill:#CCCCCC;"/>
			<clipPath id="XMLID_555_">
				<use xlink:href="#XMLID_682_"  style="overflow:visible;"/>
			</clipPath>
			<g id="XMLID_683_" class="st19">
				<path id="XMLID_685_" class="st3" d="M139.8,185.4c0,1.1-0.9,2-2,2h-14c-1.1,0-2-0.9-2-2v-5c0-1.1,0.9-2,2-2h14c1.1,0,2,0.9,2,2
					V185.4z"/>
				<path id="XMLID_684_" class="st4" d="M139.8,185.4c0,1.1-0.9,2-2,2h-14c-1.1,0-2-0.9-2-2v-5c0-1.1,0.9-2,2-2h14c1.1,0,2,0.9,2,2
					V185.4z"/>
			</g>
			<use xlink:href="#XMLID_682_"  style="overflow:visible;fill:none;stroke:#000000;stroke-width:0.5;stroke-miterlimit:10;"/>
		</g>
	</g>
	<g id="XMLID_658_">
		<g id="XMLID_659_">
			<defs>
				<path id="XMLID_673_" d="M121.8,180.4c0-1.1,0.9-2,2-2h14c1.1,0,2,0.9,2,2v5c0,1.1-0.9,2-2,2h-14c-1.1,0-2-0.9-2-2V180.4z"/>
			</defs>
			<clipPath id="XMLID_556_">
				<use xlink:href="#XMLID_673_"  style="overflow:visible;"/>
			</clipPath>
		</g>
	</g>
</g>
<circle id="XMLID_891_" class="st20" cx="274.8" cy="368.1" r="7"/>
<g id="XMLID_893_">
	<g id="XMLID_669_">
		<g id="XMLID_670_">
			<defs>
				<path id="XMLID_671_" d="M277.3,336c1.1,0,2-0.9,2-2v-14c0-1.1-0.9-2-2-2h-5c-1.1,0-2,0.9-2,2v14c0,1.1,0.9,2,2,2H277.3z"/>
			</defs>
			<clipPath id="XMLID_557_">
				<use xlink:href="#XMLID_671_"  style="overflow:visible;"/>
			</clipPath>
		</g>
	</g>
	<g id="XMLID_663_">
		<g id="XMLID_664_">
			<defs>
				<path id="XMLID_665_" d="M277.3,336c1.1,0,2-0.9,2-2v-14c0-1.1-0.9-2-2-2h-5c-1.1,0-2,0.9-2,2v14c0,1.1,0.9,2,2,2H277.3z"/>
			</defs>
			<use xlink:href="#XMLID_665_"  style="overflow:visible;fill:#CCCCCC;"/>
			<clipPath id="XMLID_558_">
				<use xlink:href="#XMLID_665_"  style="overflow:visible;"/>
			</clipPath>
			<g id="XMLID_666_" class="st21">
				<path id="XMLID_668_" class="st3" d="M272.3,318c-1.1,0-2,0.9-2,2v14c0,1.1,0.9,2,2,2h5c1.1,0,2-0.9,2-2v-14c0-1.1-0.9-2-2-2
					H272.3z"/>
				<path id="XMLID_667_" class="st4" d="M272.3,318c-1.1,0-2,0.9-2,2v14c0,1.1,0.9,2,2,2h5c1.1,0,2-0.9,2-2v-14c0-1.1-0.9-2-2-2
					H272.3z"/>
			</g>
			<use xlink:href="#XMLID_665_"  style="overflow:visible;fill:none;stroke:#000000;stroke-width:0.5;stroke-miterlimit:10;"/>
		</g>
	</g>
	<g id="XMLID_641_">
		<g id="XMLID_642_">
			<defs>
				<path id="XMLID_656_" d="M277.3,336c1.1,0,2-0.9,2-2v-14c0-1.1-0.9-2-2-2h-5c-1.1,0-2,0.9-2,2v14c0,1.1,0.9,2,2,2H277.3z"/>
			</defs>
			<clipPath id="XMLID_559_">
				<use xlink:href="#XMLID_656_"  style="overflow:visible;"/>
			</clipPath>
		</g>
	</g>
</g>
<text id="XMLID_883_" transform="matrix(0 -1 1 0 278.5102 404.3936)" class="st22 st23 st24">GPIO4</text>
<g id="XMLID_915_">
	<g id="XMLID_652_">
		<g id="XMLID_653_">
			<defs>
				<path id="XMLID_654_" d="M259.3,336c1.1,0,2-0.9,2-2v-14c0-1.1-0.9-2-2-2h-5c-1.1,0-2,0.9-2,2v14c0,1.1,0.9,2,2,2H259.3z"/>
			</defs>
			<clipPath id="XMLID_560_">
				<use xlink:href="#XMLID_654_"  style="overflow:visible;"/>
			</clipPath>
		</g>
	</g>
	<g id="XMLID_646_">
		<g id="XMLID_647_">
			<defs>
				<path id="XMLID_648_" d="M259.3,336c1.1,0,2-0.9,2-2v-14c0-1.1-0.9-2-2-2h-5c-1.1,0-2,0.9-2,2v14c0,1.1,0.9,2,2,2H259.3z"/>
			</defs>
			<use xlink:href="#XMLID_648_"  style="overflow:visible;fill:#CCCCCC;"/>
			<clipPath id="XMLID_566_">
				<use xlink:href="#XMLID_648_"  style="overflow:visible;"/>
			</clipPath>
			<g id="XMLID_649_" class="st25">
				<path id="XMLID_651_" class="st3" d="M254.3,318c-1.1,0-2,0.9-2,2v14c0,1.1,0.9,2,2,2h5c1.1,0,2-0.9,2-2v-14c0-1.1-0.9-2-2-2
					H254.3z"/>
				<path id="XMLID_650_" class="st4" d="M254.3,318c-1.1,0-2,0.9-2,2v14c0,1.1,0.9,2,2,2h5c1.1,0,2-0.9,2-2v-14c0-1.1-0.9-2-2-2
					H254.3z"/>
			</g>
			<use xlink:href="#XMLID_648_"  style="overflow:visible;fill:none;stroke:#000000;stroke-width:0.5;stroke-miterlimit:10;"/>
		</g>
	</g>
	<g id="XMLID_618_">
		<g id="XMLID_621_">
			<defs>
				<path id="XMLID_639_" d="M259.3,336c1.1,0,2-0.9,2-2v-14c0-1.1-0.9-2-2-2h-5c-1.1,0-2,0.9-2,2v14c0,1.1,0.9,2,2,2H259.3z"/>
			</defs>
			<clipPath id="XMLID_568_">
				<use xlink:href="#XMLID_639_"  style="overflow:visible;"/>
			</clipPath>
		</g>
	</g>
</g>
<circle id="XMLID_914_" class="st20" cx="256.8" cy="368.1" r="7"/>
<g id="XMLID_895_">
	<circle id="XMLID_897_" cx="256.7" cy="341.2" r="2.5"/>
	<path id="XMLID_896_" d="M257.8,360.1v-18.9h-2v18.9c0.3,0,0.7-0.1,1-0.1S257.5,360.1,257.8,360.1z"/>
</g>
<g id="XMLID_963_">
	<g id="XMLID_632_">
		<g id="XMLID_633_">
			<defs>
				<path id="XMLID_636_" d="M241.3,336c1.1,0,2-0.9,2-2v-14c0-1.1-0.9-2-2-2h-5c-1.1,0-2,0.9-2,2v14c0,1.1,0.9,2,2,2H241.3z"/>
			</defs>
			<clipPath id="XMLID_570_">
				<use xlink:href="#XMLID_636_"  style="overflow:visible;"/>
			</clipPath>
		</g>
	</g>
	<g id="XMLID_625_">
		<g id="XMLID_626_">
			<defs>
				<path id="XMLID_628_" d="M241.3,336c1.1,0,2-0.9,2-2v-14c0-1.1-0.9-2-2-2h-5c-1.1,0-2,0.9-2,2v14c0,1.1,0.9,2,2,2H241.3z"/>
			</defs>
			<use xlink:href="#XMLID_628_"  style="overflow:visible;fill:#CCCCCC;"/>
			<clipPath id="XMLID_573_">
				<use xlink:href="#XMLID_628_"  style="overflow:visible;"/>
			</clipPath>
			<g id="XMLID_629_" class="st26">
				<path id="XMLID_631_" class="st3" d="M236.3,318c-1.1,0-2,0.9-2,2v14c0,1.1,0.9,2,2,2h5c1.1,0,2-0.9,2-2v-14c0-1.1-0.9-2-2-2
					H236.3z"/>
				<path id="XMLID_630_" class="st4" d="M236.3,318c-1.1,0-2,0.9-2,2v14c0,1.1,0.9,2,2,2h5c1.1,0,2-0.9,2-2v-14c0-1.1-0.9-2-2-2
					H236.3z"/>
			</g>
			<use xlink:href="#XMLID_628_"  style="overflow:visible;fill:none;stroke:#000000;stroke-width:0.5;stroke-miterlimit:10;"/>
		</g>
	</g>
	<g id="XMLID_583_">
		<g id="XMLID_586_">
			<defs>
				<path id="XMLID_607_" d="M241.3,336c1.1,0,2-0.9,2-2v-14c0-1.1-0.9-2-2-2h-5c-1.1,0-2,0.9-2,2v14c0,1.1,0.9,2,2,2H241.3z"/>
			</defs>
			<clipPath id="XMLID_575_">
				<use xlink:href="#XMLID_607_"  style="overflow:visible;"/>
			</clipPath>
		</g>
	</g>
</g>
<circle id="XMLID_962_" class="st20" cx="238.8" cy="368.1" r="7"/>
<g id="XMLID_950_">
	<circle id="XMLID_952_" cx="238.7" cy="341.2" r="2.5"/>
	<path id="XMLID_951_" d="M239.8,360.1v-18.9h-2v18.9c0.3,0,0.7-0.1,1-0.1S239.5,360.1,239.8,360.1z"/>
</g>
<g id="XMLID_998_">
	<g id="XMLID_601_">
		<g id="XMLID_603_">
			<defs>
				<path id="XMLID_605_" d="M223.3,336c1.1,0,2-0.9,2-2v-14c0-1.1-0.9-2-2-2h-5c-1.1,0-2,0.9-2,2v14c0,1.1,0.9,2,2,2H223.3z"/>
			</defs>
			<clipPath id="XMLID_576_">
				<use xlink:href="#XMLID_605_"  style="overflow:visible;"/>
			</clipPath>
		</g>
	</g>
	<g id="XMLID_593_">
		<g id="XMLID_594_">
			<defs>
				<path id="XMLID_595_" d="M223.3,336c1.1,0,2-0.9,2-2v-14c0-1.1-0.9-2-2-2h-5c-1.1,0-2,0.9-2,2v14c0,1.1,0.9,2,2,2H223.3z"/>
			</defs>
			<use xlink:href="#XMLID_595_"  style="overflow:visible;fill:#CCCCCC;"/>
			<clipPath id="XMLID_577_">
				<use xlink:href="#XMLID_595_"  style="overflow:visible;"/>
			</clipPath>
			<g id="XMLID_596_" class="st27">
				<path id="XMLID_598_" class="st3" d="M218.3,318c-1.1,0-2,0.9-2,2v14c0,1.1,0.9,2,2,2h5c1.1,0,2-0.9,2-2v-14c0-1.1-0.9-2-2-2
					H218.3z"/>
				<path id="XMLID_597_" class="st4" d="M218.3,318c-1.1,0-2,0.9-2,2v14c0,1.1,0.9,2,2,2h5c1.1,0,2-0.9,2-2v-14c0-1.1-0.9-2-2-2
					H218.3z"/>
			</g>
			<use xlink:href="#XMLID_595_"  style="overflow:visible;fill:none;stroke:#000000;stroke-width:0.5;stroke-miterlimit:10;"/>
		</g>
	</g>
	<g id="XMLID_518_">
		<g id="XMLID_519_">
			<defs>
				<path id="XMLID_572_" d="M223.3,336c1.1,0,2-0.9,2-2v-14c0-1.1-0.9-2-2-2h-5c-1.1,0-2,0.9-2,2v14c0,1.1,0.9,2,2,2H223.3z"/>
			</defs>
			<clipPath id="XMLID_578_">
				<use xlink:href="#XMLID_572_"  style="overflow:visible;"/>
			</clipPath>
		</g>
	</g>
</g>
<circle id="XMLID_997_" class="st20" cx="220.8" cy="368.1" r="7"/>
<g id="XMLID_1033_">
	<g id="XMLID_534_">
		<g id="XMLID_554_">
			<defs>
				<path id="XMLID_569_" d="M205.3,336c1.1,0,2-0.9,2-2v-14c0-1.1-0.9-2-2-2h-5c-1.1,0-2,0.9-2,2v14c0,1.1,0.9,2,2,2H205.3z"/>
			</defs>
			<clipPath id="XMLID_579_">
				<use xlink:href="#XMLID_569_"  style="overflow:visible;"/>
			</clipPath>
		</g>
	</g>
	<g id="XMLID_523_">
		<g id="XMLID_524_">
			<defs>
				<path id="XMLID_525_" d="M205.3,336c1.1,0,2-0.9,2-2v-14c0-1.1-0.9-2-2-2h-5c-1.1,0-2,0.9-2,2v14c0,1.1,0.9,2,2,2H205.3z"/>
			</defs>
			<use xlink:href="#XMLID_525_"  style="overflow:visible;fill:#CCCCCC;"/>
			<clipPath id="XMLID_580_">
				<use xlink:href="#XMLID_525_"  style="overflow:visible;"/>
			</clipPath>
			<g id="XMLID_528_" class="st28">
				<path id="XMLID_533_" class="st3" d="M200.3,318c-1.1,0-2,0.9-2,2v14c0,1.1,0.9,2,2,2h5c1.1,0,2-0.9,2-2v-14c0-1.1-0.9-2-2-2
					H200.3z"/>
				<path id="XMLID_531_" class="st4" d="M200.3,318c-1.1,0-2,0.9-2,2v14c0,1.1,0.9,2,2,2h5c1.1,0,2-0.9,2-2v-14c0-1.1-0.9-2-2-2
					H200.3z"/>
			</g>
			<use xlink:href="#XMLID_525_"  style="overflow:visible;fill:none;stroke:#000000;stroke-width:0.5;stroke-miterlimit:10;"/>
		</g>
	</g>
	<g id="XMLID_461_">
		<g id="XMLID_463_">
			<defs>
				<path id="XMLID_496_" d="M205.3,336c1.1,0,2-0.9,2-2v-14c0-1.1-0.9-2-2-2h-5c-1.1,0-2,0.9-2,2v14c0,1.1,0.9,2,2,2H205.3z"/>
			</defs>
			<clipPath id="XMLID_604_">
				<use xlink:href="#XMLID_496_"  style="overflow:visible;"/>
			</clipPath>
		</g>
	</g>
</g>
<circle id="XMLID_1032_" class="st20" cx="202.8" cy="368.1" r="7"/>
<path id="XMLID_199_" class="st0" d="M202.8,376.1c-3,0-5.6-1.7-7-4.1v6.3v22.6c0,3.9,3.1,7,7,7c3.9,0,7-3.1,7-7v-22.6V372
	C208.5,374.5,205.9,376.1,202.8,376.1z"/>
<path id="XMLID_6_" class="st0" d="M220.8,376.1c-3,0-5.6-1.7-7-4.1v6.3v22.6c0,3.9,3.1,7,7,7c3.9,0,7-3.1,7-7v-22.6V372
	C226.5,374.5,223.9,376.1,220.8,376.1z"/>
<path id="XMLID_13_" class="st0" d="M238.8,376.1c-3,0-5.6-1.7-7-4.1v6.3v22.6c0,3.9,3.1,7,7,7c3.9,0,7-3.1,7-7v-22.6V372
	C244.5,374.5,241.9,376.1,238.8,376.1z"/>
<path id="XMLID_125_" class="st0" d="M256.8,376.1c-3,0-5.6-1.7-7-4.1v6.3v22.6c0,3.9,3.1,7,7,7c3.9,0,7-3.1,7-7v-22.6V372
	C262.5,374.5,259.9,376.1,256.8,376.1z"/>
<g id="XMLID_1020_">
	<circle id="XMLID_1022_" cx="202.7" cy="341.2" r="2.5"/>
	<path id="XMLID_1021_" d="M203.8,360.1v-18.9h-2v18.9c0.3,0,0.7-0.1,1-0.1S203.5,360.1,203.8,360.1z"/>
</g>
<g id="XMLID_1068_">
	<g id="XMLID_489_">
		<g id="XMLID_491_">
			<defs>
				<path id="XMLID_492_" d="M187.3,336c1.1,0,2-0.9,2-2v-14c0-1.1-0.9-2-2-2h-5c-1.1,0-2,0.9-2,2v14c0,1.1,0.9,2,2,2H187.3z"/>
			</defs>
			<clipPath id="XMLID_608_">
				<use xlink:href="#XMLID_492_"  style="overflow:visible;"/>
			</clipPath>
		</g>
	</g>
	<g id="XMLID_483_">
		<g id="XMLID_484_">
			<defs>
				<path id="XMLID_485_" d="M187.3,336c1.1,0,2-0.9,2-2v-14c0-1.1-0.9-2-2-2h-5c-1.1,0-2,0.9-2,2v14c0,1.1,0.9,2,2,2H187.3z"/>
			</defs>
			<use xlink:href="#XMLID_485_"  style="overflow:visible;fill:#CCCCCC;"/>
			<clipPath id="XMLID_610_">
				<use xlink:href="#XMLID_485_"  style="overflow:visible;"/>
			</clipPath>
			<g id="XMLID_486_" class="st29">
				<path id="XMLID_488_" class="st3" d="M182.3,318c-1.1,0-2,0.9-2,2v14c0,1.1,0.9,2,2,2h5c1.1,0,2-0.9,2-2v-14c0-1.1-0.9-2-2-2
					H182.3z"/>
				<path id="XMLID_487_" class="st4" d="M182.3,318c-1.1,0-2,0.9-2,2v14c0,1.1,0.9,2,2,2h5c1.1,0,2-0.9,2-2v-14c0-1.1-0.9-2-2-2
					H182.3z"/>
			</g>
			<use xlink:href="#XMLID_485_"  style="overflow:visible;fill:none;stroke:#000000;stroke-width:0.5;stroke-miterlimit:10;"/>
		</g>
	</g>
	<g id="XMLID_416_">
		<g id="XMLID_417_">
			<defs>
				<path id="XMLID_457_" d="M187.3,336c1.1,0,2-0.9,2-2v-14c0-1.1-0.9-2-2-2h-5c-1.1,0-2,0.9-2,2v14c0,1.1,0.9,2,2,2H187.3z"/>
			</defs>
			<clipPath id="XMLID_611_">
				<use xlink:href="#XMLID_457_"  style="overflow:visible;"/>
			</clipPath>
		</g>
	</g>
</g>
<circle id="XMLID_1067_" class="st20" cx="184.8" cy="368.1" r="7"/>
<path id="XMLID_166_" class="st30" d="M184.8,376.1c-3,0-5.6-1.7-7-4.1v6.3v22.6c0,3.9,3.1,7,7,7c3.9,0,7-3.1,7-7v-22.6V372
	C190.5,374.5,187.9,376.1,184.8,376.1z"/>
<g id="XMLID_1055_">
	<circle id="XMLID_1057_" cx="184.7" cy="341.2" r="2.5"/>
	<path id="XMLID_1056_" d="M185.8,360.1v-18.9h-2v18.9c0.3,0,0.7-0.1,1-0.1S185.5,360.1,185.8,360.1z"/>
</g>
<g id="XMLID_1103_">
	<g id="XMLID_450_">
		<g id="XMLID_451_">
			<defs>
				<path id="XMLID_455_" d="M169.3,336c1.1,0,2-0.9,2-2v-14c0-1.1-0.9-2-2-2h-5c-1.1,0-2,0.9-2,2v14c0,1.1,0.9,2,2,2H169.3z"/>
			</defs>
			<clipPath id="XMLID_612_">
				<use xlink:href="#XMLID_455_"  style="overflow:visible;"/>
			</clipPath>
		</g>
	</g>
	<g id="XMLID_421_">
		<g id="XMLID_429_">
			<defs>
				<path id="XMLID_430_" d="M169.3,336c1.1,0,2-0.9,2-2v-14c0-1.1-0.9-2-2-2h-5c-1.1,0-2,0.9-2,2v14c0,1.1,0.9,2,2,2H169.3z"/>
			</defs>
			<use xlink:href="#XMLID_430_"  style="overflow:visible;fill:#CCCCCC;"/>
			<clipPath id="XMLID_613_">
				<use xlink:href="#XMLID_430_"  style="overflow:visible;"/>
			</clipPath>
			<g id="XMLID_446_" class="st31">
				<path id="XMLID_449_" class="st3" d="M164.3,318c-1.1,0-2,0.9-2,2v14c0,1.1,0.9,2,2,2h5c1.1,0,2-0.9,2-2v-14c0-1.1-0.9-2-2-2
					H164.3z"/>
				<path id="XMLID_448_" class="st4" d="M164.3,318c-1.1,0-2,0.9-2,2v14c0,1.1,0.9,2,2,2h5c1.1,0,2-0.9,2-2v-14c0-1.1-0.9-2-2-2
					H164.3z"/>
			</g>
			<use xlink:href="#XMLID_430_"  style="overflow:visible;fill:none;stroke:#000000;stroke-width:0.5;stroke-miterlimit:10;"/>
		</g>
	</g>
	<g id="XMLID_349_">
		<g id="XMLID_350_">
			<defs>
				<path id="XMLID_414_" d="M169.3,336c1.1,0,2-0.9,2-2v-14c0-1.1-0.9-2-2-2h-5c-1.1,0-2,0.9-2,2v14c0,1.1,0.9,2,2,2H169.3z"/>
			</defs>
			<clipPath id="XMLID_614_">
				<use xlink:href="#XMLID_414_"  style="overflow:visible;"/>
			</clipPath>
		</g>
	</g>
</g>
<circle id="XMLID_1102_" class="st20" cx="166.8" cy="368.1" r="7"/>
<path id="XMLID_436_" class="st0" d="M166.8,376.1c-3,0-5.6-1.7-7-4.1v6.3v22.6c0,3.9,3.1,7,7,7c3.9,0,7-3.1,7-7v-22.6V372
	C172.5,374.5,169.9,376.1,166.8,376.1z"/>
<g id="XMLID_1138_">
	<g id="XMLID_410_">
		<g id="XMLID_411_">
			<defs>
				<path id="XMLID_412_" d="M151.3,336c1.1,0,2-0.9,2-2v-14c0-1.1-0.9-2-2-2h-5c-1.1,0-2,0.9-2,2v14c0,1.1,0.9,2,2,2H151.3z"/>
			</defs>
			<clipPath id="XMLID_615_">
				<use xlink:href="#XMLID_412_"  style="overflow:visible;"/>
			</clipPath>
		</g>
	</g>
	<g id="XMLID_391_">
		<g id="XMLID_392_">
			<defs>
				<path id="XMLID_400_" d="M151.3,336c1.1,0,2-0.9,2-2v-14c0-1.1-0.9-2-2-2h-5c-1.1,0-2,0.9-2,2v14c0,1.1,0.9,2,2,2H151.3z"/>
			</defs>
			<use xlink:href="#XMLID_400_"  style="overflow:visible;fill:#CCCCCC;"/>
			<clipPath id="XMLID_627_">
				<use xlink:href="#XMLID_400_"  style="overflow:visible;"/>
			</clipPath>
			<g id="XMLID_401_" class="st32">
				<path id="XMLID_409_" class="st3" d="M146.3,318c-1.1,0-2,0.9-2,2v14c0,1.1,0.9,2,2,2h5c1.1,0,2-0.9,2-2v-14c0-1.1-0.9-2-2-2
					H146.3z"/>
				<path id="XMLID_408_" class="st4" d="M146.3,318c-1.1,0-2,0.9-2,2v14c0,1.1,0.9,2,2,2h5c1.1,0,2-0.9,2-2v-14c0-1.1-0.9-2-2-2
					H146.3z"/>
			</g>
			<use xlink:href="#XMLID_400_"  style="overflow:visible;fill:none;stroke:#000000;stroke-width:0.5;stroke-miterlimit:10;"/>
		</g>
	</g>
	<g id="XMLID_315_">
		<g id="XMLID_316_">
			<defs>
				<path id="XMLID_346_" d="M151.3,336c1.1,0,2-0.9,2-2v-14c0-1.1-0.9-2-2-2h-5c-1.1,0-2,0.9-2,2v14c0,1.1,0.9,2,2,2H151.3z"/>
			</defs>
			<clipPath id="XMLID_729_">
				<use xlink:href="#XMLID_346_"  style="overflow:visible;"/>
			</clipPath>
		</g>
	</g>
</g>
<circle id="XMLID_1137_" class="st20" cx="148.8" cy="368.1" r="7"/>
<path id="XMLID_435_" class="st0" d="M148.8,376.1c-3,0-5.6-1.7-7-4.1v6.3v22.6c0,3.9,3.1,7,7,7c3.9,0,7-3.1,7-7v-22.6V372
	C154.5,374.5,151.9,376.1,148.8,376.1z"/>
<g id="XMLID_397_">
	<g id="XMLID_340_">
		<g id="XMLID_341_">
			<defs>
				<path id="XMLID_342_" d="M301.8,198.4c0-1.1-0.9-2-2-2h-14c-1.1,0-2,0.9-2,2v5c0,1.1,0.9,2,2,2h14c1.1,0,2-0.9,2-2V198.4z"/>
			</defs>
			<clipPath id="XMLID_730_">
				<use xlink:href="#XMLID_342_"  style="overflow:visible;"/>
			</clipPath>
		</g>
	</g>
	<g id="XMLID_334_">
		<g id="XMLID_335_">
			<defs>
				<path id="XMLID_336_" d="M301.8,198.4c0-1.1-0.9-2-2-2h-14c-1.1,0-2,0.9-2,2v5c0,1.1,0.9,2,2,2h14c1.1,0,2-0.9,2-2V198.4z"/>
			</defs>
			<use xlink:href="#XMLID_336_"  style="overflow:visible;fill:#CCCCCC;"/>
			<clipPath id="XMLID_731_">
				<use xlink:href="#XMLID_336_"  style="overflow:visible;"/>
			</clipPath>
			<g id="XMLID_337_" class="st33">
				<path id="XMLID_339_" class="st3" d="M283.8,203.4c0,1.1,0.9,2,2,2h14c1.1,0,2-0.9,2-2v-5c0-1.1-0.9-2-2-2h-14c-1.1,0-2,0.9-2,2
					V203.4z"/>
				<path id="XMLID_338_" class="st4" d="M283.8,203.4c0,1.1,0.9,2,2,2h14c1.1,0,2-0.9,2-2v-5c0-1.1-0.9-2-2-2h-14c-1.1,0-2,0.9-2,2
					V203.4z"/>
			</g>
			<use xlink:href="#XMLID_336_"  style="overflow:visible;fill:none;stroke:#000000;stroke-width:0.5;stroke-miterlimit:10;"/>
		</g>
	</g>
	<g id="XMLID_281_">
		<g id="XMLID_282_">
			<defs>
				<path id="XMLID_312_" d="M301.8,198.4c0-1.1-0.9-2-2-2h-14c-1.1,0-2,0.9-2,2v5c0,1.1,0.9,2,2,2h14c1.1,0,2-0.9,2-2V198.4z"/>
			</defs>
			<clipPath id="XMLID_732_">
				<use xlink:href="#XMLID_312_"  style="overflow:visible;"/>
			</clipPath>
		</g>
	</g>
</g>
<circle id="XMLID_396_" class="st20" cx="333.9" cy="200.9" r="7"/>
<text id="XMLID_139_" transform="matrix(1 0 0 1 328.8154 203.8134)" class="st22 st23 st24">23</text>
<path id="XMLID_54_" class="st0" d="M366.7,193.9h-22.6h-6.3c2.5,1.4,4.1,4,4.1,7s-1.7,5.6-4.1,7h6.3h22.6c3.9,0,7-3.1,7-7
	C373.7,197,370.6,193.9,366.7,193.9z"/>
<path id="XMLID_134_" class="st34" d="M399.5,193.9h-22.6h-6.3c2.5,1.4,4.1,4,4.1,7s-1.7,5.6-4.1,7h6.3h22.6c3.9,0,7-3.1,7-7
	C406.5,197,403.4,193.9,399.5,193.9z"/>
<text id="XMLID_58_" transform="matrix(1 0 0 1 343.2496 204.4384)" class="st22 st23 st24">GPIO8</text>
<g id="XMLID_445_">
	<g id="XMLID_306_">
		<g id="XMLID_307_">
			<defs>
				<path id="XMLID_308_" d="M301.8,216.4c0-1.1-0.9-2-2-2h-14c-1.1,0-2,0.9-2,2v5c0,1.1,0.9,2,2,2h14c1.1,0,2-0.9,2-2V216.4z"/>
			</defs>
			<clipPath id="XMLID_742_">
				<use xlink:href="#XMLID_308_"  style="overflow:visible;"/>
			</clipPath>
		</g>
	</g>
	<g id="XMLID_300_">
		<g id="XMLID_301_">
			<defs>
				<path id="XMLID_302_" d="M301.8,216.4c0-1.1-0.9-2-2-2h-14c-1.1,0-2,0.9-2,2v5c0,1.1,0.9,2,2,2h14c1.1,0,2-0.9,2-2V216.4z"/>
			</defs>
			<use xlink:href="#XMLID_302_"  style="overflow:visible;fill:#CCCCCC;"/>
			<clipPath id="XMLID_743_">
				<use xlink:href="#XMLID_302_"  style="overflow:visible;"/>
			</clipPath>
			<g id="XMLID_303_" class="st35">
				<path id="XMLID_305_" class="st3" d="M283.8,221.4c0,1.1,0.9,2,2,2h14c1.1,0,2-0.9,2-2v-5c0-1.1-0.9-2-2-2h-14c-1.1,0-2,0.9-2,2
					V221.4z"/>
				<path id="XMLID_304_" class="st4" d="M283.8,221.4c0,1.1,0.9,2,2,2h14c1.1,0,2-0.9,2-2v-5c0-1.1-0.9-2-2-2h-14c-1.1,0-2,0.9-2,2
					V221.4z"/>
			</g>
			<use xlink:href="#XMLID_302_"  style="overflow:visible;fill:none;stroke:#000000;stroke-width:0.5;stroke-miterlimit:10;"/>
		</g>
	</g>
	<g id="XMLID_247_">
		<g id="XMLID_248_">
			<defs>
				<path id="XMLID_278_" d="M301.8,216.4c0-1.1-0.9-2-2-2h-14c-1.1,0-2,0.9-2,2v5c0,1.1,0.9,2,2,2h14c1.1,0,2-0.9,2-2V216.4z"/>
			</defs>
			<clipPath id="XMLID_744_">
				<use xlink:href="#XMLID_278_"  style="overflow:visible;"/>
			</clipPath>
		</g>
	</g>
</g>
<circle id="XMLID_444_" class="st20" cx="333.9" cy="218.9" r="7"/>
<text id="XMLID_442_" transform="matrix(1 0 0 1 328.8154 221.8134)" class="st22 st23 st24">22</text>
<path id="XMLID_72_" class="st0" d="M366.7,211.9h-22.6h-6.3c2.5,1.4,4.1,4,4.1,7s-1.7,5.6-4.1,7h6.3h22.6c3.9,0,7-3.1,7-7
	C373.7,215,370.6,211.9,366.7,211.9z"/>
<text id="XMLID_434_" transform="matrix(1 0 0 1 343.2496 222.4384)" class="st22 st23 st24">GPIO7</text>
<g id="XMLID_480_">
	<g id="XMLID_272_">
		<g id="XMLID_273_">
			<defs>
				<path id="XMLID_274_" d="M301.8,234.4c0-1.1-0.9-2-2-2h-14c-1.1,0-2,0.9-2,2v5c0,1.1,0.9,2,2,2h14c1.1,0,2-0.9,2-2V234.4z"/>
			</defs>
			<clipPath id="XMLID_745_">
				<use xlink:href="#XMLID_274_"  style="overflow:visible;"/>
			</clipPath>
		</g>
	</g>
	<g id="XMLID_266_">
		<g id="XMLID_267_">
			<defs>
				<path id="XMLID_268_" d="M301.8,234.4c0-1.1-0.9-2-2-2h-14c-1.1,0-2,0.9-2,2v5c0,1.1,0.9,2,2,2h14c1.1,0,2-0.9,2-2V234.4z"/>
			</defs>
			<use xlink:href="#XMLID_268_"  style="overflow:visible;fill:#CCCCCC;"/>
			<clipPath id="XMLID_746_">
				<use xlink:href="#XMLID_268_"  style="overflow:visible;"/>
			</clipPath>
			<g id="XMLID_269_" class="st36">
				<path id="XMLID_271_" class="st3" d="M283.8,239.4c0,1.1,0.9,2,2,2h14c1.1,0,2-0.9,2-2v-5c0-1.1-0.9-2-2-2h-14c-1.1,0-2,0.9-2,2
					V239.4z"/>
				<path id="XMLID_270_" class="st4" d="M283.8,239.4c0,1.1,0.9,2,2,2h14c1.1,0,2-0.9,2-2v-5c0-1.1-0.9-2-2-2h-14c-1.1,0-2,0.9-2,2
					V239.4z"/>
			</g>
			<use xlink:href="#XMLID_268_"  style="overflow:visible;fill:none;stroke:#000000;stroke-width:0.5;stroke-miterlimit:10;"/>
		</g>
	</g>
	<g id="XMLID_213_">
		<g id="XMLID_214_">
			<defs>
				<path id="XMLID_244_" d="M301.8,234.4c0-1.1-0.9-2-2-2h-14c-1.1,0-2,0.9-2,2v5c0,1.1,0.9,2,2,2h14c1.1,0,2-0.9,2-2V234.4z"/>
			</defs>
			<clipPath id="XMLID_747_">
				<use xlink:href="#XMLID_244_"  style="overflow:visible;"/>
			</clipPath>
		</g>
	</g>
</g>
<circle id="XMLID_479_" class="st20" cx="333.9" cy="236.9" r="7"/>
<text id="XMLID_477_" transform="matrix(1 0 0 1 328.8154 239.8134)" class="st22 st23 st24">21</text>
<path id="XMLID_84_" class="st0" d="M366.7,229.9h-22.6h-6.3c2.5,1.4,4.1,4,4.1,7s-1.7,5.6-4.1,7h6.3h22.6c3.9,0,7-3.1,7-7
	C373.7,233,370.6,229.9,366.7,229.9z"/>
<text id="XMLID_469_" transform="matrix(1 0 0 1 343.2496 240.4384)" class="st22 st23 st24">GPIO6</text>
<g id="XMLID_515_">
	<g id="XMLID_238_">
		<g id="XMLID_239_">
			<defs>
				<path id="XMLID_240_" d="M301.8,252.4c0-1.1-0.9-2-2-2h-14c-1.1,0-2,0.9-2,2v5c0,1.1,0.9,2,2,2h14c1.1,0,2-0.9,2-2V252.4z"/>
			</defs>
			<clipPath id="XMLID_748_">
				<use xlink:href="#XMLID_240_"  style="overflow:visible;"/>
			</clipPath>
		</g>
	</g>
	<g id="XMLID_232_">
		<g id="XMLID_233_">
			<defs>
				<path id="XMLID_234_" d="M301.8,252.4c0-1.1-0.9-2-2-2h-14c-1.1,0-2,0.9-2,2v5c0,1.1,0.9,2,2,2h14c1.1,0,2-0.9,2-2V252.4z"/>
			</defs>
			<use xlink:href="#XMLID_234_"  style="overflow:visible;fill:#CCCCCC;"/>
			<clipPath id="XMLID_749_">
				<use xlink:href="#XMLID_234_"  style="overflow:visible;"/>
			</clipPath>
			<g id="XMLID_235_" class="st37">
				<path id="XMLID_237_" class="st3" d="M283.8,257.4c0,1.1,0.9,2,2,2h14c1.1,0,2-0.9,2-2v-5c0-1.1-0.9-2-2-2h-14c-1.1,0-2,0.9-2,2
					V257.4z"/>
				<path id="XMLID_236_" class="st4" d="M283.8,257.4c0,1.1,0.9,2,2,2h14c1.1,0,2-0.9,2-2v-5c0-1.1-0.9-2-2-2h-14c-1.1,0-2,0.9-2,2
					V257.4z"/>
			</g>
			<use xlink:href="#XMLID_234_"  style="overflow:visible;fill:none;stroke:#000000;stroke-width:0.5;stroke-miterlimit:10;"/>
		</g>
	</g>
	<g id="XMLID_205_">
		<g id="XMLID_206_">
			<defs>
				<path id="XMLID_210_" d="M301.8,252.4c0-1.1-0.9-2-2-2h-14c-1.1,0-2,0.9-2,2v5c0,1.1,0.9,2,2,2h14c1.1,0,2-0.9,2-2V252.4z"/>
			</defs>
			<clipPath id="XMLID_750_">
				<use xlink:href="#XMLID_210_"  style="overflow:visible;"/>
			</clipPath>
		</g>
	</g>
</g>
<circle id="XMLID_514_" class="st20" cx="333.9" cy="254.9" r="7"/>
<text id="XMLID_512_" transform="matrix(1 0 0 1 328.8154 257.8134)" class="st22 st23 st24">20</text>
<path id="XMLID_89_" class="st0" d="M366.7,247.9h-22.6h-6.3c2.5,1.4,4.1,4,4.1,7s-1.7,5.6-4.1,7h6.3h22.6c3.9,0,7-3.1,7-7
	C373.7,251,370.6,247.9,366.7,247.9z"/>
<text id="XMLID_504_" transform="matrix(1 0 0 1 343.2496 258.4384)" class="st22 st23 st38">GPIO11</text>
<g id="XMLID_564_">
	<defs>
		<rect id="XMLID_565_" x="283.8" y="268.4" width="18" height="9"/>
	</defs>
	<use xlink:href="#XMLID_565_"  style="overflow:visible;fill:#CCCCCC;"/>
	<clipPath id="XMLID_758_">
		<use xlink:href="#XMLID_565_"  style="overflow:visible;"/>
	</clipPath>
	<rect id="XMLID_567_" x="283.8" y="268.4" class="st39" width="18" height="9"/>
	<use xlink:href="#XMLID_565_"  style="overflow:visible;fill:none;stroke:#000000;stroke-width:0.5;stroke-miterlimit:10;"/>
</g>
<circle id="XMLID_549_" class="st20" cx="333.9" cy="272.9" r="7"/>
<text id="XMLID_547_" transform="matrix(1 0 0 1 328.8154 275.8134)" class="st22 st23 st24">19</text>
<path id="XMLID_90_" class="st0" d="M366.7,265.9h-22.6h-6.3c2.5,1.4,4.1,4,4.1,7s-1.7,5.6-4.1,7h6.3h22.6c3.9,0,7-3.1,7-7
	C373.7,269,370.6,265.9,366.7,265.9z"/>
<text id="XMLID_539_" transform="matrix(1 0 0 1 343.2496 276.4384)" class="st22 st23 st38">GPIO10</text>
<g id="XMLID_585_">
	<g id="XMLID_1049_">
		<g id="XMLID_1051_">
			<defs>
				<path id="XMLID_1052_" d="M301.8,288.4c0-1.1-0.9-2-2-2h-14c-1.1,0-2,0.9-2,2v5c0,1.1,0.9,2,2,2h14c1.1,0,2-0.9,2-2V288.4z"/>
			</defs>
			<clipPath id="XMLID_759_">
				<use xlink:href="#XMLID_1052_"  style="overflow:visible;"/>
			</clipPath>
		</g>
	</g>
	<g id="XMLID_949_">
		<g id="XMLID_973_">
			<defs>
				<path id="XMLID_981_" d="M301.8,288.4c0-1.1-0.9-2-2-2h-14c-1.1,0-2,0.9-2,2v5c0,1.1,0.9,2,2,2h14c1.1,0,2-0.9,2-2V288.4z"/>
			</defs>
			<use xlink:href="#XMLID_981_"  style="overflow:visible;fill:#CCCCCC;"/>
			<clipPath id="XMLID_760_">
				<use xlink:href="#XMLID_981_"  style="overflow:visible;"/>
			</clipPath>
			<g id="XMLID_982_" class="st40">
				<path id="XMLID_1007_" class="st3" d="M283.8,293.4c0,1.1,0.9,2,2,2h14c1.1,0,2-0.9,2-2v-5c0-1.1-0.9-2-2-2h-14
					c-1.1,0-2,0.9-2,2V293.4z"/>
				<path id="XMLID_983_" class="st4" d="M283.8,293.4c0,1.1,0.9,2,2,2h14c1.1,0,2-0.9,2-2v-5c0-1.1-0.9-2-2-2h-14c-1.1,0-2,0.9-2,2
					V293.4z"/>
			</g>
			<use xlink:href="#XMLID_981_"  style="overflow:visible;fill:none;stroke:#000000;stroke-width:0.5;stroke-miterlimit:10;"/>
		</g>
	</g>
	<g id="XMLID_201_">
		<g id="XMLID_202_">
			<defs>
				<path id="XMLID_203_" d="M301.8,288.4c0-1.1-0.9-2-2-2h-14c-1.1,0-2,0.9-2,2v5c0,1.1,0.9,2,2,2h14c1.1,0,2-0.9,2-2V288.4z"/>
			</defs>
			<clipPath id="XMLID_761_">
				<use xlink:href="#XMLID_203_"  style="overflow:visible;"/>
			</clipPath>
		</g>
	</g>
</g>
<circle id="XMLID_584_" class="st20" cx="333.9" cy="290.9" r="7"/>
<text id="XMLID_582_" transform="matrix(1 0 0 1 328.8154 293.8134)" class="st22 st23 st24">18</text>
<path id="XMLID_71_" class="st0" d="M366.7,283.9h-22.6h-6.3c2.5,1.4,4.1,4,4.1,7s-1.7,5.6-4.1,7h6.3h22.6c3.9,0,7-3.1,7-7
	C373.7,287,370.6,283.9,366.7,283.9z"/>
<text id="XMLID_574_" transform="matrix(1 0 0 1 343.2496 294.4384)" class="st22 st23 st24">GPIO9</text>
<g id="XMLID_620_">
	<g id="XMLID_1114_">
		<g id="XMLID_1115_">
			<defs>
				<path id="XMLID_1141_" d="M301.8,306.4c0-1.1-0.9-2-2-2h-14c-1.1,0-2,0.9-2,2v5c0,1.1,0.9,2,2,2h14c1.1,0,2-0.9,2-2V306.4z"/>
			</defs>
			<clipPath id="XMLID_774_">
				<use xlink:href="#XMLID_1141_"  style="overflow:visible;"/>
			</clipPath>
		</g>
	</g>
	<g id="XMLID_1077_">
		<g id="XMLID_1084_">
			<defs>
				<path id="XMLID_1086_" d="M301.8,306.4c0-1.1-0.9-2-2-2h-14c-1.1,0-2,0.9-2,2v5c0,1.1,0.9,2,2,2h14c1.1,0,2-0.9,2-2V306.4z"/>
			</defs>
			<use xlink:href="#XMLID_1086_"  style="overflow:visible;fill:#CCCCCC;"/>
			<clipPath id="XMLID_849_">
				<use xlink:href="#XMLID_1086_"  style="overflow:visible;"/>
			</clipPath>
			<g id="XMLID_1087_" class="st41">
				<path id="XMLID_1113_" class="st3" d="M283.8,311.4c0,1.1,0.9,2,2,2h14c1.1,0,2-0.9,2-2v-5c0-1.1-0.9-2-2-2h-14
					c-1.1,0-2,0.9-2,2V311.4z"/>
				<path id="XMLID_1108_" class="st4" d="M283.8,311.4c0,1.1,0.9,2,2,2h14c1.1,0,2-0.9,2-2v-5c0-1.1-0.9-2-2-2h-14
					c-1.1,0-2,0.9-2,2V311.4z"/>
			</g>
			<use xlink:href="#XMLID_1086_"  style="overflow:visible;fill:none;stroke:#000000;stroke-width:0.5;stroke-miterlimit:10;"/>
		</g>
	</g>
	<g id="XMLID_1016_">
		<g id="XMLID_1017_">
			<defs>
				<path id="XMLID_1042_" d="M301.8,306.4c0-1.1-0.9-2-2-2h-14c-1.1,0-2,0.9-2,2v5c0,1.1,0.9,2,2,2h14c1.1,0,2-0.9,2-2V306.4z"/>
			</defs>
			<clipPath id="XMLID_850_">
				<use xlink:href="#XMLID_1042_"  style="overflow:visible;"/>
			</clipPath>
		</g>
	</g>
</g>
<circle id="XMLID_619_" class="st20" cx="333.9" cy="308.9" r="7"/>
<text id="XMLID_617_" transform="matrix(1 0 0 1 328.8154 311.8134)" class="st22 st23 st24">17</text>
<path id="XMLID_70_" class="st30" d="M366.7,301.9h-22.6h-6.3c2.5,1.4,4.1,4,4.1,7s-1.7,5.6-4.1,7h6.3h22.6c3.9,0,7-3.1,7-7
	C373.7,305,370.6,301.9,366.7,301.9z"/>
<text id="XMLID_609_" transform="matrix(1 0 0 1 342.2496 311.4384)" class="st22 st23 st42">VDDPST</text>
<path id="XMLID_1776_" class="st43" d="M289.5,164.9c1.8,0,3.3,1.5,3.3,3.3v155.4c0,1.8-1.5,3.3-3.3,3.3H134.1
	c-1.8,0-3.3-1.5-3.3-3.3V168.2c0-1.8,1.5-3.3,3.3-3.3H289.5z"/>
<g id="XMLID_1769_" class="st44">
	<g id="XMLID_1770_">
		<path id="XMLID_1775_" class="st45" d="M212.1,185.5c0.4-0.1,0.7-0.1,1.1-0.1c0.9-0.1,1.7-0.1,2.6,0c6.1,0.2,12.1,2.3,17,5.8
			c4.9,3.5,8.7,8.4,10.8,14c1.7,4.4,2.4,9.1,2,13.8c-0.4,0.2-0.8,0.3-1.2,0.4c-0.3,0.1-0.6,0.3-1,0.3c-2-5.8-5-11.3-8.9-16
			c-5.8-7.1-13.5-12.6-22.1-15.7c-0.4-0.1-0.7-0.3-1.1-0.4c-0.1-0.1,0-0.2,0.1-0.3C211.7,186.7,211.9,186,212.1,185.5"/>
		<path id="XMLID_1774_" class="st45" d="M199.7,189.1c0.2-0.1,0.4-0.3,0.7-0.2c7.6,0.9,15,3.7,21.3,8c4.8,3.3,9,7.4,12.3,12.2
			c4.3,6.2,7.1,13.4,8.2,20.9c0,0.4,0.2,0.7,0,1.1c-0.8,1.5-1.8,3-2.9,4.4c-0.5,0.6-0.9,1.1-1.4,1.7c-0.3,0.1-0.6,0-0.9,0
			c-1.5,0-2.9,0-4.4-0.1c0-2.9-0.3-5.9-0.9-8.8c-1.3-5.8-3.9-11.2-7.7-15.8c-3.8-4.7-8.8-8.5-14.4-10.9c-4.9-2.1-10.3-3.2-15.7-3.1
			c0-1.7-0.1-3.5-0.1-5.2c0-0.1,0.1-0.2,0.1-0.2C195.8,191.6,197.7,190.2,199.7,189.1"/>
		<path id="XMLID_1773_" class="st45" d="M188.4,190.6c0.1-0.1,0.1-0.1,0.2-0.2c0.7,0.7,1.3,1.3,2,2c-0.3,0.3-0.6,0.6-0.9,0.9
			c-4.1,4.4-7,9.9-8.3,15.8c-0.5,2.2-0.8,4.5-0.8,6.8c-0.1,0.6,0,1.3,0,1.9c0.2,6.5,2.4,12.9,6.2,18.3c3.4,4.8,8.1,8.7,13.4,11.2
			c4.4,2,9.2,3.1,14,3.2c4.3,0,8.5-0.7,12.5-2.2c4-1.5,7.7-3.8,10.9-6.8c0.3-0.3,0.7-0.6,1-0.9c0.7,0.7,1.4,1.3,2,2
			c-4.5,4.5-10.2,7.8-16.4,9.5c-4.1,1.1-8.3,1.5-12.5,1.2c-4.9-0.4-9.7-1.8-14.1-4c-4.9-2.5-9.2-6.2-12.5-10.6
			c-4.1-5.4-6.6-12-7.2-18.7c-0.5-4.9,0.1-9.8,1.6-14.5C181.3,199.8,184.4,194.7,188.4,190.6"/>
		<path id="XMLID_1772_" class="st45" d="M193.1,202.5c1.6-0.3,3.3-0.2,4.9-0.1c6.6,0.6,13.1,3.3,18.2,7.5
			c4.8,3.9,8.5,9.1,10.6,14.9c1.9,5.1,2.5,10.6,1.8,16c-0.1,1.2-0.4,2.4-0.6,3.5c0,0.2-0.1,0.4-0.3,0.4c-1.7,0.8-3.5,1.4-5.4,1.9
			c-0.3,0.1-0.5,0.2-0.8,0.1c-1.4-0.5-2.8-1-4.1-1.6c0.8-2.2,1.3-4.4,1.5-6.7c0.3-3.4-0.2-6.9-1.4-10.1c-0.9-2.6-2.3-5.1-4.1-7.2
			c-1.9-2.3-4.3-4.3-6.9-5.8c-2.9-1.6-6.1-2.6-9.4-3c-0.6-0.1-1.2-0.1-1.8-0.1c-0.8,0-1.5,0.6-1.7,1.4c-0.2,0.5,0,1.1,0.3,1.6
			c0.3,0.5,0.9,0.8,1.5,0.8c3.1,0.1,6.2,0.9,9,2.4c2.5,1.3,4.7,3.2,6.5,5.4c1.9,2.4,3.3,5.3,3.9,8.3c1.2,5.2,0.2,10.9-2.7,15.4
			c-2-0.1-4-0.5-6-1.1c-0.4-0.1-0.7-0.4-0.9-0.6c-0.8-0.7-1.6-1.4-2.4-2.1c-0.1-0.1-0.1-0.2,0-0.3c1.7-2,2.6-4.6,2.5-7.2
			c-0.1-3-1.5-6-3.8-7.9c-1.9-1.5-4.3-2.4-6.7-2.4c-2.5-0.1-5-1.1-7-2.8c-2.4-2-4-5.1-4.2-8.2c0.1-1.5,0.3-3.1,0.6-4.6
			c0.8-2.5,2.5-4.6,4.6-6C190.1,203.4,191.5,202.8,193.1,202.5"/>
		<path id="XMLID_1771_" class="st45" d="M193.6,231.1c1.2-0.2,2.4-0.1,3.4,0.5c1.2,0.6,2.2,1.7,2.7,3c0.3,0.8,0.4,1.8,0.3,2.7
			c-0.2,1.3-0.9,2.6-2,3.5c-0.9,0.7-2.1,1.2-3.3,1.2c-1.5,0-2.9-0.6-3.9-1.6c-0.8-0.8-1.3-1.8-1.5-2.9c-0.3-1.5,0.1-3,1-4.2
			C191.1,232.1,192.3,231.4,193.6,231.1"/>
	</g>
</g>
<g id="XMLID_1766_" class="st46">
	<g id="XMLID_1767_">
		<path id="XMLID_1768_" class="st45" d="M152.8,183.5c2.3,0,4.1,1.9,4.1,4.2c0,2.3-1.9,4.1-4.1,4.1c-2.3,0-4.2-1.9-4.2-4.1
			C148.6,185.4,150.5,183.5,152.8,183.5"/>
	</g>
</g>
<g id="XMLID_1724_" class="st44">
	<g id="XMLID_1725_">
		<path id="XMLID_1765_" class="st45" d="M164.5,275v-13.1c0-0.5,0.2-0.7,0.7-0.7h5.8c0.5,0,0.7,0.3,0.7,0.7c0,0.5-0.2,0.7-0.7,0.7
			H166v4.4h3.6c0.5,0,0.7,0.2,0.7,0.7c0,0.5-0.2,0.7-0.7,0.7H166v5.8h5.1c0.5,0,0.7,0.2,0.7,0.7c0,0.5-0.2,0.7-0.7,0.7h-5.8
			C164.8,275.8,164.5,275.5,164.5,275"/>
		<path id="XMLID_1764_" class="st45" d="M183.4,272.1c0,1-0.4,1.9-1.1,2.6c-0.7,0.7-1.6,1.1-2.6,1.1c-1.8,0-3.4-0.5-4.8-1.6
			c-0.2-0.2-0.3-0.4-0.3-0.6c0-0.2,0.1-0.4,0.2-0.5c0.1-0.1,0.3-0.2,0.5-0.2c0.1,0,0.3,0,0.4,0.1c0.4,0.3,1.1,0.6,2,1
			c0.6,0.2,1.2,0.3,1.9,0.3c0.6,0,1.1-0.2,1.5-0.6c0.4-0.4,0.6-0.9,0.6-1.5c0-0.9-0.4-1.5-1.2-1.9l-4.1-2.1c-1.3-0.7-2-1.8-2-3.2
			c0-1,0.4-1.9,1.1-2.6c0.7-0.7,1.6-1.1,2.6-1.1c1.7,0,3,0.3,3.9,0.8c0.3,0.2,0.4,0.4,0.4,0.7c0,0.2-0.1,0.4-0.2,0.5
			c-0.1,0.1-0.3,0.2-0.5,0.2c-0.1,0-0.2,0-0.3-0.1c-1.1-0.4-2.2-0.7-3.3-0.7c-0.6,0-1.1,0.2-1.5,0.7c-0.4,0.4-0.6,0.9-0.6,1.5
			c0,0.9,0.4,1.5,1.2,1.9l4.1,2.1C182.8,269.6,183.4,270.7,183.4,272.1"/>
		<path id="XMLID_1761_" class="st45" d="M187.1,261.2h3.6c1.2,0,2.2,0.4,3.1,1.3c0.9,0.8,1.3,1.9,1.3,3.1c0,1.3-0.4,2.3-1.2,3.1
			c-0.8,0.8-1.9,1.2-3.2,1.2h-2.9v5.1c0,0.5-0.3,0.7-0.7,0.7c-0.5,0-0.7-0.2-0.7-0.7v-13.1C186.3,261.5,186.6,261.2,187.1,261.2
			 M187.8,262.7v5.8h2.9c0.8,0,1.5-0.3,2.1-0.8c0.6-0.6,0.9-1.3,0.9-2.1c0-0.8-0.3-1.5-0.9-2.1c-0.6-0.6-1.3-0.9-2.1-0.9H187.8z"/>
		<path id="XMLID_1757_" class="st45" d="M201.6,275.8c-1,0-1.9-0.4-2.6-1.1c-0.7-0.7-1.1-1.6-1.1-2.6v-1.5c0-1.2,0.5-2.2,1.5-2.9
			c-1-0.7-1.5-1.7-1.5-2.9c0-1,0.4-1.9,1.1-2.6c0.7-0.7,1.6-1.1,2.6-1.1c1,0,1.9,0.4,2.6,1.1c0.7,0.7,1.1,1.6,1.1,2.6
			c0,1.2-0.5,2.2-1.5,2.9c0.7,0.5,1.1,1.2,1.3,1.9c0.1,0.4,0.1,1.2,0.1,2.4c0,1-0.4,1.9-1.1,2.6
			C203.5,275.4,202.6,275.8,201.6,275.8 M201.6,274.3c0.6,0,1.1-0.2,1.5-0.6c0.4-0.4,0.6-0.9,0.6-1.5v-1.5c0-0.6-0.2-1.1-0.6-1.5
			c-0.4-0.4-0.9-0.6-1.5-0.6c-0.6,0-1.1,0.2-1.5,0.6c-0.4,0.4-0.6,0.9-0.6,1.5v1.5c0,0.6,0.2,1.1,0.6,1.5
			C200.5,274.1,201,274.3,201.6,274.3 M201.6,267c0.6,0,1.1-0.2,1.5-0.6c0.4-0.4,0.6-0.9,0.6-1.5c0-0.6-0.2-1.1-0.6-1.5
			c-0.4-0.4-0.9-0.7-1.5-0.7c-0.6,0-1.1,0.2-1.5,0.6c-0.4,0.4-0.6,0.9-0.6,1.5c0,0.6,0.2,1.1,0.6,1.5C200.5,266.8,201,267,201.6,267
			"/>
		<path id="XMLID_1756_" class="st45" d="M211.8,261.2c1,0,1.9,0.4,2.6,1.1c0.7,0.7,1.1,1.6,1.1,2.6c0,0.7-0.2,1.4-0.7,2.1l-4.6,7.4
			h4.5c0.5,0,0.7,0.2,0.7,0.7c0,0.5-0.2,0.7-0.7,0.7h-5.8c-0.5,0-0.7-0.2-0.7-0.7c0-0.1,0-0.3,0.1-0.4l5.3-8.6
			c0.2-0.4,0.4-0.8,0.4-1.2c0-0.6-0.2-1.1-0.6-1.5c-0.4-0.4-0.9-0.7-1.5-0.7c-0.8,0-1.6,0.6-2.3,1.8c-0.1,0.2-0.3,0.3-0.6,0.3
			c-0.5,0-0.7-0.2-0.7-0.7c0-0.1,0-0.2,0.1-0.3C209.1,262.1,210.3,261.2,211.8,261.2"/>
		<path id="XMLID_1753_" class="st45" d="M223.4,261.2c0.5,0,0.7,0.2,0.7,0.7c0,0.4-0.1,0.6-0.4,0.6c-1.1,0.3-2,0.9-2.8,1.9
			c-0.7,0.8-1,1.6-1.1,2.5h2.1c1,0,1.9,0.3,2.6,1.1c0.7,0.7,1,1.6,1,2.6v1.5c0,1-0.3,1.9-1.1,2.6c-0.7,0.7-1.6,1.1-2.6,1.1
			c-1,0-1.9-0.3-2.6-1.1c-0.7-0.7-1.1-1.6-1.1-2.6v-4.4c0-1.6,0.5-3.1,1.6-4.3c0.8-1,1.8-1.6,2.8-2
			C223.1,261.3,223.3,261.2,223.4,261.2 M219.8,268.5v3.6c0,0.6,0.2,1.1,0.6,1.5c0.4,0.4,0.9,0.6,1.5,0.6c0.6,0,1.1-0.2,1.6-0.6
			c0.4-0.4,0.6-0.9,0.6-1.5v-1.5c0-0.6-0.2-1.1-0.6-1.5c-0.4-0.4-0.9-0.6-1.5-0.6H219.8z"/>
		<path id="XMLID_1750_" class="st45" d="M233.6,261.2c0.5,0,0.7,0.2,0.7,0.7c0,0.4-0.1,0.6-0.4,0.6c-1.1,0.3-2,0.9-2.8,1.9
			c-0.6,0.8-1,1.6-1.1,2.5h2.1c1,0,1.9,0.3,2.6,1.1c0.7,0.7,1,1.6,1,2.6v1.5c0,1-0.4,1.9-1.1,2.6c-0.7,0.7-1.6,1.1-2.6,1.1
			c-1,0-1.9-0.3-2.6-1.1c-0.7-0.7-1.1-1.6-1.1-2.6v-4.4c0-1.6,0.5-3.1,1.6-4.3c0.9-1,1.8-1.6,2.8-2
			C233.3,261.3,233.5,261.2,233.6,261.2 M230,268.5v3.6c0,0.6,0.2,1.1,0.6,1.5c0.4,0.4,0.9,0.6,1.5,0.6c0.6,0,1.1-0.2,1.5-0.6
			c0.4-0.4,0.6-0.9,0.6-1.5v-1.5c0-0.6-0.2-1.1-0.6-1.5c-0.4-0.4-0.9-0.6-1.5-0.6H230z"/>
		<path id="XMLID_1749_" class="st45" d="M238.7,275v-13.1c0-0.5,0.2-0.7,0.7-0.7h5.8c0.5,0,0.7,0.3,0.7,0.7c0,0.5-0.2,0.7-0.7,0.7
			h-5.1v4.4h3.6c0.5,0,0.7,0.2,0.7,0.7c0,0.5-0.2,0.7-0.7,0.7h-3.6v5.8h5.1c0.5,0,0.7,0.2,0.7,0.7c0,0.5-0.2,0.7-0.7,0.7h-5.8
			C239,275.8,238.7,275.5,238.7,275"/>
		<path id="XMLID_1748_" class="st45" d="M254.9,268.5l4.1,6.1c0.1,0.1,0.1,0.3,0.1,0.4c0,0.5-0.2,0.7-0.7,0.7
			c-0.3,0-0.5-0.1-0.6-0.3l-3.8-5.6l-3.8,5.6c-0.1,0.2-0.3,0.3-0.6,0.3c-0.5,0-0.7-0.2-0.7-0.7c0-0.1,0-0.3,0.1-0.4l4.1-6.1
			l-4.1-6.1c-0.1-0.1-0.1-0.3-0.1-0.4c0-0.5,0.2-0.7,0.7-0.7c0.3,0,0.5,0.1,0.6,0.3l3.8,5.6l3.8-5.6c0.1-0.2,0.4-0.3,0.6-0.3
			c0.5,0,0.7,0.2,0.7,0.7c0,0.1,0,0.3-0.1,0.4L254.9,268.5z"/>
		<path id="XMLID_1747_" class="st45" d="M187.1,287.8h-1.5c-0.5,0-0.7-0.3-0.7-0.7c0-0.5,0.3-0.7,0.7-0.7h1.5
			c0.6,0,1.1-0.2,1.6-0.6c0.4-0.4,0.6-0.9,0.6-1.5c0-0.6-0.2-1.1-0.6-1.5c-0.4-0.4-0.9-0.6-1.5-0.6h-2.9c-0.5,0-0.7-0.2-0.7-0.7
			c0-0.5,0.3-0.7,0.7-0.7h2.9c1,0,1.9,0.4,2.6,1.1c0.7,0.7,1.1,1.6,1.1,2.6c0,1.2-0.5,2.2-1.5,2.9c1,0.7,1.5,1.7,1.5,2.9v1.5
			c0,1-0.3,1.9-1.1,2.6c-0.7,0.7-1.6,1.1-2.6,1.1h-2.9c-0.5,0-0.7-0.3-0.7-0.7c0-0.5,0.3-0.7,0.7-0.7h2.9c0.6,0,1.1-0.2,1.6-0.6
			c0.4-0.4,0.6-0.9,0.6-1.5V290c0-0.6-0.2-1.1-0.6-1.5C188.2,288,187.7,287.8,187.1,287.8"/>
		<path id="XMLID_1744_" class="st45" d="M200.9,287.8c0,1.7-0.2,3.2-0.6,4.5c-0.6,1.9-1.6,2.8-3,2.8c-1.4,0-2.4-0.9-3-2.8
			c-0.4-1.3-0.6-2.8-0.6-4.5c0-1.7,0.2-3.3,0.6-4.5c0.6-1.8,1.6-2.8,3-2.8c1.4,0,2.4,0.9,3,2.8C200.7,284.6,200.9,286.1,200.9,287.8
			 M199.4,287.8c0-1.2-0.1-2.3-0.4-3.4c-0.4-1.6-1-2.4-1.8-2.4c-0.8,0-1.4,0.8-1.8,2.4c-0.3,1.1-0.4,2.2-0.4,3.4
			c0,1.2,0.1,2.3,0.4,3.4c0.4,1.6,1,2.4,1.8,2.4c0.8,0,1.4-0.8,1.8-2.4C199.3,290.2,199.4,289,199.4,287.8"/>
		<path id="XMLID_1743_" class="st45" d="M207.4,280.5c1,0,1.9,0.3,2.6,1.1c0.7,0.7,1.1,1.6,1.1,2.6c0,0.7-0.2,1.4-0.7,2.1l-4.6,7.4
			h4.5c0.5,0,0.7,0.3,0.7,0.7c0,0.5-0.2,0.7-0.7,0.7h-5.8c-0.5,0-0.7-0.3-0.7-0.7c0-0.1,0-0.3,0.1-0.4l5.3-8.6
			c0.2-0.4,0.4-0.8,0.4-1.2c0-0.6-0.2-1.1-0.6-1.5c-0.4-0.4-0.9-0.6-1.5-0.6c-0.8,0-1.6,0.6-2.3,1.8c-0.1,0.2-0.3,0.4-0.6,0.4
			c-0.5,0-0.7-0.2-0.7-0.7c0-0.1,0-0.2,0.1-0.3C204.8,281.4,206,280.5,207.4,280.5"/>
		<path id="XMLID_1740_" class="st45" d="M221.3,287.8c0,1.7-0.2,3.2-0.6,4.5c-0.6,1.9-1.6,2.8-3,2.8c-1.4,0-2.4-0.9-3-2.8
			c-0.4-1.3-0.6-2.8-0.6-4.5c0-1.7,0.2-3.3,0.6-4.5c0.6-1.8,1.6-2.8,3-2.8c1.4,0,2.4,0.9,3,2.8C221,284.6,221.3,286.1,221.3,287.8
			 M219.8,287.8c0-1.2-0.1-2.3-0.4-3.4c-0.4-1.6-1-2.4-1.8-2.4c-0.8,0-1.4,0.8-1.8,2.4c-0.3,1.1-0.4,2.2-0.4,3.4
			c0,1.2,0.1,2.3,0.4,3.4c0.4,1.6,1,2.4,1.8,2.4c0.8,0,1.4-0.8,1.8-2.4C219.7,290.2,219.8,289,219.8,287.8"/>
		<path id="XMLID_1739_" class="st45" d="M227.1,283l-1.7,1.7c-0.1,0.1-0.3,0.2-0.5,0.2c-0.5,0-0.7-0.3-0.7-0.7
			c0-0.2,0.1-0.4,0.2-0.5l2.8-2.8c0.2-0.2,0.4-0.3,0.6-0.3c0.5,0,0.7,0.3,0.7,0.7v13.1c0,0.5-0.2,0.7-0.7,0.7
			c-0.5,0-0.7-0.3-0.7-0.7V283z"/>
		<path id="XMLID_1738_" class="st45" d="M231.4,291.5c0-0.1,0-0.2,0-0.2l2.9-10.2c0.1-0.3,0.3-0.5,0.7-0.5c0.5,0,0.7,0.2,0.7,0.7
			c0,0.1,0,0.1,0,0.2l-2.7,9.2h3.4v-2.2c0-0.5,0.3-0.7,0.7-0.7s0.7,0.2,0.7,0.7v2.2h1.5c0.5,0,0.7,0.2,0.7,0.7
			c0,0.5-0.2,0.7-0.7,0.7H238v2.2c0,0.5-0.2,0.7-0.7,0.7s-0.7-0.3-0.7-0.7v-2.2h-4.4C231.7,292.2,231.4,291.9,231.4,291.5"/>
		<path id="XMLID_1735_" class="st45" d="M180.5,299.9h3.6c1.2,0,2.2,0.4,3.1,1.3c0.9,0.8,1.3,1.9,1.3,3.1c0,1.3-0.4,2.3-1.2,3.1
			c-0.8,0.8-1.9,1.2-3.2,1.2h-2.9v5.1c0,0.5-0.3,0.7-0.7,0.7c-0.5,0-0.7-0.2-0.7-0.7v-13.1C179.8,300.1,180,299.9,180.5,299.9
			 M181.3,301.3v5.8h2.9c0.8,0,1.5-0.3,2.1-0.8c0.6-0.6,0.8-1.3,0.8-2.1c0-0.8-0.3-1.5-0.8-2.1c-0.6-0.6-1.3-0.9-2.1-0.9H181.3z"/>
		<path id="XMLID_1732_" class="st45" d="M200.2,310.1c0,1.2-0.4,2.2-1.3,3.1c-0.9,0.9-1.9,1.3-3.1,1.3c-1.2,0-2.2-0.4-3.1-1.3
			c-0.8-0.9-1.3-1.9-1.3-3.1v-5.8c0-1.2,0.4-2.2,1.3-3.1c0.9-0.9,1.9-1.3,3.1-1.3c1.2,0,2.2,0.4,3.1,1.3c0.9,0.9,1.3,1.9,1.3,3.1
			V310.1z M198.7,310.1v-5.8c0-0.8-0.3-1.5-0.9-2.1c-0.6-0.6-1.3-0.9-2.1-0.9c-0.8,0-1.5,0.3-2.1,0.9c-0.6,0.6-0.8,1.3-0.8,2.1v5.8
			c0,0.8,0.3,1.5,0.8,2.1c0.6,0.5,1.3,0.8,2.1,0.8c0.8,0,1.5-0.3,2.1-0.8C198.4,311.6,198.7,310.9,198.7,310.1"/>
		<path id="XMLID_1731_" class="st45" d="M208.2,314.4c-0.3,0-0.6-0.2-0.7-0.6l-4.3-13c0-0.1,0-0.1,0-0.2c0-0.5,0.2-0.7,0.7-0.7
			c0.3,0,0.6,0.2,0.7,0.5l3.7,11l3.7-11c0.1-0.3,0.3-0.5,0.7-0.5c0.5,0,0.7,0.2,0.7,0.7c0,0.1,0,0.2,0,0.2l-4.3,13
			C208.8,314.2,208.5,314.4,208.2,314.4"/>
		<path id="XMLID_1730_" class="st45" d="M221.3,314.4c-0.3,0-0.6-0.2-0.7-0.6l-4.3-13c0-0.1,0-0.1,0-0.2c0-0.5,0.2-0.7,0.7-0.7
			c0.3,0,0.6,0.2,0.7,0.5l3.7,11l3.7-11c0.1-0.3,0.3-0.5,0.7-0.5c0.5,0,0.7,0.2,0.7,0.7c0,0.1,0,0.2,0,0.2l-4.3,13
			C221.8,314.2,221.6,314.4,221.3,314.4"/>
		<path id="XMLID_1727_" class="st45" d="M236.5,307.1c0,1.7-0.2,3.2-0.6,4.5c-0.6,1.8-1.6,2.8-3,2.8c-1.4,0-2.4-0.9-3-2.8
			c-0.4-1.3-0.7-2.8-0.7-4.5c0-1.7,0.2-3.3,0.7-4.5c0.6-1.9,1.6-2.8,3-2.8c1.4,0,2.4,0.9,3,2.8C236.3,303.9,236.5,305.4,236.5,307.1
			 M235.1,307.1c0-1.2-0.1-2.3-0.4-3.4c-0.4-1.6-1-2.4-1.8-2.4c-0.8,0-1.4,0.8-1.8,2.4c-0.3,1.1-0.4,2.2-0.4,3.4
			c0,1.2,0.1,2.3,0.4,3.4c0.4,1.6,1,2.4,1.8,2.4c0.8,0,1.4-0.8,1.8-2.4C234.9,309.5,235.1,308.3,235.1,307.1"/>
		<path id="XMLID_1726_" class="st45" d="M242.4,302.4l-1.7,1.7c-0.1,0.1-0.3,0.2-0.5,0.2c-0.5,0-0.7-0.3-0.7-0.7
			c0-0.2,0.1-0.4,0.2-0.5l2.8-2.8c0.2-0.2,0.4-0.3,0.6-0.3c0.5,0,0.7,0.2,0.7,0.7v13.1c0,0.5-0.2,0.7-0.7,0.7
			c-0.5,0-0.7-0.3-0.7-0.7V302.4z"/>
	</g>
</g>
<g id="XMLID_53_">
	<circle id="XMLID_109_" cx="307" cy="201.1" r="2.5"/>
	<path id="XMLID_107_" d="M325.9,199.9H307v2h18.9c0-0.3-0.1-0.7-0.1-1S325.9,200.2,325.9,199.9z"/>
</g>
<circle id="XMLID_498_" class="st20" cx="274.8" cy="123.9" r="7"/>
<text id="XMLID_490_" transform="matrix(0 -1 1 0 277.7603 128.9141)" class="st22 st23 st24">25</text>
<text id="XMLID_110_" transform="matrix(0 -1 1 0 278.3853 114.4795)" class="st22 st23 st24">GPIO3</text>
<g id="XMLID_52_">
	<circle id="XMLID_108_" cx="275" cy="150.7" r="2.5"/>
	<path id="XMLID_106_" d="M273.8,131.8v18.9h2v-18.9c-0.3,0-0.7,0.1-1,0.1S274.2,131.8,273.8,131.8z"/>
</g>
<circle id="XMLID_791_" class="st20" cx="256.8" cy="123.9" r="7"/>
<text id="XMLID_775_" transform="matrix(0 -1 1 0 259.7603 128.9141)" class="st22 st23 st24">26</text>
<path id="XMLID_31_" class="st0" d="M256.8,84c-3.9,0-7,3.1-7,7v22.6v6.3c1.4-2.5,4-4.1,7-4.1s5.6,1.7,7,4.1v-6.3V91
	C263.8,87.1,260.7,84,256.8,84z"/>
<text id="XMLID_589_" transform="matrix(0 -1 1 0 260.3853 114.4795)" class="st22 st23 st24">GPIO1</text>
<text id="XMLID_1305_" transform="matrix(0 -1 1 0 278.3853 81.4795)" class="st22 st23 st24">U0RXD</text>
<g id="XMLID_1308_">
	<path id="XMLID_1304_" class="st1" d="M249.8,58h14c0-3.9-3.1-7-7-7C253,51,249.8,54.1,249.8,58z"/>
	<path id="XMLID_1303_" class="st1" d="M249.8,86.9c1.4-2.5,4-4.1,7-4.1s5.6,1.7,7,4.1v-6.3h-14V86.9z"/>
	<rect id="XMLID_590_" x="249.8" y="58" class="st1" width="14" height="22.6"/>
</g>
<text id="XMLID_407_" transform="matrix(0 -1 1 0 259.7603 82.4795)" class="st22 st23 st38">SPI_CS1</text>
<g id="XMLID_1311_">
	<path id="XMLID_1314_" class="st1" d="M249.8,25h14c0-3.9-3.1-7-7-7C253,18,249.8,21.1,249.8,25z"/>
	<path id="XMLID_1313_" class="st1" d="M249.8,53.9c1.4-2.5,4-4.1,7-4.1s5.6,1.7,7,4.1v-6.3h-14V53.9z"/>
	<rect id="XMLID_1312_" x="249.8" y="25" class="st1" width="14" height="22.6"/>
</g>
<text id="XMLID_1310_" transform="matrix(0 -1 1 0 260.5102 47.6475)" class="st22 st23 st24">U0TXD</text>
<g id="XMLID_500_">
	<circle id="XMLID_588_" cx="257" cy="150.7" r="2.5"/>
	<path id="XMLID_526_" d="M255.8,131.8v18.9h2v-18.9c-0.3,0-0.7,0.1-1,0.1S256.2,131.8,255.8,131.8z"/>
</g>
<circle id="XMLID_854_" class="st20" cx="238.8" cy="123.9" r="7"/>
<text id="XMLID_853_" transform="matrix(0 -1 1 0 241.7603 128.9141)" class="st22 st23 st24">27</text>
<path id="XMLID_59_" class="st47" d="M238.8,84c-3.9,0-7,3.1-7,7v22.6v6.3c1.4-2.5,4-4.1,7-4.1s5.6,1.7,7,4.1v-6.3V91
	C245.8,87.1,242.7,84,238.8,84z"/>
<text id="XMLID_848_" transform="matrix(0 -1 1 0 242.3853 114.4795)" class="st22 st23 st24">XTALO</text>
<g id="XMLID_845_">
	<circle id="XMLID_847_" cx="239" cy="150.7" r="2.5"/>
	<path id="XMLID_846_" d="M237.8,131.8v18.9h2v-18.9c-0.3,0-0.7,0.1-1,0.1S238.2,131.8,237.8,131.8z"/>
</g>
<circle id="XMLID_905_" class="st20" cx="220.8" cy="123.9" r="7"/>
<text id="XMLID_902_" transform="matrix(0 -1 1 0 223.7603 128.9141)" class="st22 st23 st24">28</text>
<path id="XMLID_50_" class="st47" d="M220.8,84c-3.9,0-7,3.1-7,7v22.6v6.3c1.4-2.5,4-4.1,7-4.1s5.6,1.7,7,4.1v-6.3V91
	C227.8,87.1,224.7,84,220.8,84z"/>
<text id="XMLID_880_" transform="matrix(0 -1 1 0 224.3853 114.4795)" class="st22 st23 st24">XTALI</text>
<g id="XMLID_876_">
	<circle id="XMLID_878_" cx="221" cy="150.7" r="2.5"/>
	<path id="XMLID_877_" d="M219.8,131.8v18.9h2v-18.9c-0.3,0-0.7,0.1-1,0.1S220.2,131.8,219.8,131.8z"/>
</g>
<circle id="XMLID_1185_" class="st20" cx="202.8" cy="123.9" r="7"/>
<text id="XMLID_1184_" transform="matrix(0 -1 1 0 205.7603 128.9141)" class="st22 st23 st24">29</text>
<path id="XMLID_91_" class="st30" d="M202.8,84c-3.9,0-7,3.1-7,7v22.6v6.3c1.4-2.5,4-4.1,7-4.1s5.6,1.7,7,4.1v-6.3V91
	C209.8,87.1,206.7,84,202.8,84z"/>
<text id="XMLID_1179_" transform="matrix(0 -1 1 0 206.3853 114.4795)" class="st22 st23 st24">VDDD</text>
<g id="XMLID_1176_">
	<circle id="XMLID_1178_" cx="203" cy="150.7" r="2.5"/>
	<path id="XMLID_1177_" d="M201.8,131.8v18.9h2v-18.9c-0.3,0-0.7,0.1-1,0.1S202.2,131.8,201.8,131.8z"/>
</g>
<circle id="XMLID_1216_" class="st20" cx="184.8" cy="123.9" r="7"/>
<text id="XMLID_1215_" transform="matrix(0 -1 1 0 187.7603 128.9141)" class="st22 st23 st24">30</text>
<path id="XMLID_2_" class="st30" d="M184.8,84c-3.9,0-7,3.1-7,7v22.6v6.3c1.4-2.5,4-4.1,7-4.1s5.6,1.7,7,4.1v-6.3V91
	C191.8,87.1,188.7,84,184.8,84z"/>
<text id="XMLID_1210_" transform="matrix(0 -1 1 0 188.3853 114.4795)" class="st22 st23 st24">VDDA</text>
<g id="XMLID_1207_">
	<circle id="XMLID_1209_" cx="185" cy="150.7" r="2.5"/>
	<path id="XMLID_1208_" d="M183.8,131.8v18.9h2v-18.9c-0.3,0-0.7,0.1-1,0.1S184.2,131.8,183.8,131.8z"/>
</g>
<circle id="XMLID_1247_" class="st20" cx="166.8" cy="123.9" r="7"/>
<text id="XMLID_1246_" transform="matrix(0 -1 1 0 169.7603 128.9141)" class="st22 st23 st24">31</text>
<path id="XMLID_45_" class="st47" d="M166.8,84c-3.9,0-7,3.1-7,7v22.6v6.3c1.4-2.5,4-4.1,7-4.1s5.6,1.7,7,4.1v-6.3V91
	C173.8,87.1,170.7,84,166.8,84z"/>
<text id="XMLID_1241_" transform="matrix(0 -1 1 0 170.3853 114.4795)" class="st22 st23 st38">RES12K</text>
<g id="XMLID_1238_">
	<circle id="XMLID_1240_" cx="167" cy="150.7" r="2.5"/>
	<path id="XMLID_1239_" d="M165.8,131.8v18.9h2v-18.9c-0.3,0-0.7,0.1-1,0.1S166.2,131.8,165.8,131.8z"/>
</g>
<circle id="XMLID_1280_" class="st20" cx="148.8" cy="123.9" r="7"/>
<text id="XMLID_1279_" transform="matrix(0 -1 1 0 151.7603 128.9141)" class="st22 st23 st24">32</text>
<path id="XMLID_37_" class="st47" d="M148.8,84c-3.9,0-7,3.1-7,7v22.6v6.3c1.4-2.5,4-4.1,7-4.1s5.6,1.7,7,4.1v-6.3V91
	C155.8,87.1,152.7,84,148.8,84z"/>
<text id="XMLID_1274_" transform="matrix(0 -1 1 0 151.1426 115.4795)" class="st22 st23 st48">EXT_RSTT</text>
<g id="XMLID_1271_">
	<circle id="XMLID_1273_" cx="149" cy="150.7" r="2.5"/>
	<path id="XMLID_1272_" d="M147.8,131.8v18.9h2v-18.9c-0.3,0-0.7,0.1-1,0.1S148.2,131.8,147.8,131.8z"/>
</g>
<circle id="XMLID_132_" class="st20" cx="89.8" cy="182.9" r="7"/>
<g id="XMLID_1_">
	<polygon id="XMLID_35_" class="st0" points="93.6,189.9 93.6,189.9 93.6,189.9 	"/>
	<polygon id="XMLID_77_" class="st0" points="93.6,175.9 93.6,175.9 93.6,175.9 	"/>
	<path id="XMLID_78_" class="st0" d="M85.8,175.9h-6.3H57c-3.9,0-7,3.1-7,7c0,3.9,3.1,7,7,7h22.6h6.3c-2.5-1.4-4.1-4-4.1-7
		S83.4,177.3,85.8,175.9z"/>
</g>
<g id="XMLID_3_">
	<circle id="XMLID_4_" cx="116.7" cy="183.1" r="2.5"/>
	<path id="XMLID_5_" d="M97.7,181.9h18.9v2H97.7c0-0.3,0.1-0.7,0.1-1S97.8,182.2,97.7,181.9z"/>
</g>
<g id="XMLID_113_">
	<circle id="XMLID_119_" cx="307" cy="219.1" r="2.5"/>
	<path id="XMLID_114_" d="M325.9,217.9H307v2h18.9c0-0.3-0.1-0.7-0.1-1S325.9,218.2,325.9,217.9z"/>
</g>
<g id="XMLID_120_">
	<circle id="XMLID_122_" cx="307" cy="237.1" r="2.5"/>
	<path id="XMLID_121_" d="M325.9,235.9H307v2h18.9c0-0.3-0.1-0.7-0.1-1S325.9,236.2,325.9,235.9z"/>
</g>
<g id="XMLID_138_">
	<circle id="XMLID_431_" cx="307" cy="255.1" r="2.5"/>
	<path id="XMLID_140_" d="M325.9,253.9H307v2h18.9c0-0.3-0.1-0.7-0.1-1S325.9,254.2,325.9,253.9z"/>
</g>
<g id="XMLID_432_">
	<circle id="XMLID_443_" cx="307" cy="273.1" r="2.5"/>
	<path id="XMLID_441_" d="M325.9,271.9H307v2h18.9c0-0.3-0.1-0.7-0.1-1S325.9,272.2,325.9,271.9z"/>
</g>
<g id="XMLID_466_">
	<circle id="XMLID_476_" cx="307" cy="291.1" r="2.5"/>
	<path id="XMLID_467_" d="M325.9,289.9H307v2h18.9c0-0.3-0.1-0.7-0.1-1S325.9,290.2,325.9,289.9z"/>
</g>
<g id="XMLID_478_">
	<circle id="XMLID_502_" cx="307" cy="309.1" r="2.5"/>
	<path id="XMLID_501_" d="M325.9,307.9H307v2h18.9c0-0.3-0.1-0.7-0.1-1S325.9,308.2,325.9,307.9z"/>
</g>
<g id="XMLID_12_">
	<g id="XMLID_32_">
		<circle id="XMLID_1602_" cx="274.9" cy="341.2" r="2.5"/>
	</g>
	<path id="XMLID_879_" d="M273.8,360.1c0.3,0,0.7-0.1,1.1-0.1c0.3,0,0.6,0,0.9,0.1v-5.7h-3.9v-1.9h8v-5.9h-3.9v-5.5h-2v7.5h3.9v1.9
		h-8v5.9h3.9V360.1z"/>
</g>
<g id="XMLID_927_">
	<g id="XMLID_933_">
		<circle id="XMLID_934_" cx="220.9" cy="341.2" r="2.5"/>
	</g>
	<path id="XMLID_928_" d="M219.8,360.1c0.3,0,0.7-0.1,1.1-0.1c0.3,0,0.6,0,0.9,0.1v-5.7h-3.9v-1.9h8v-5.9h-3.9v-5.5h-2v7.5h3.9v1.9
		h-8v5.9h3.9V360.1z"/>
</g>
<g id="XMLID_984_">
	<g id="XMLID_986_">
		<circle id="XMLID_987_" cx="166.9" cy="341.2" r="2.5"/>
	</g>
	<path id="XMLID_985_" d="M165.8,360.1c0.3,0,0.7-0.1,1.1-0.1c0.3,0,0.6,0,0.9,0.1v-5.7h-3.9v-1.9h8v-5.9h-3.9v-5.5h-2v7.5h3.9v1.9
		h-8v5.9h3.9V360.1z"/>
</g>
<g id="XMLID_1019_">
	<g id="XMLID_1124_">
		<circle id="XMLID_1125_" cx="148.9" cy="341.2" r="2.5"/>
	</g>
	<path id="XMLID_1054_" d="M147.8,360.1c0.3,0,0.7-0.1,1.1-0.1c0.3,0,0.6,0,0.9,0.1v-5.7h-3.9v-1.9h8v-5.9h-3.9v-5.5h-2v7.5h3.9v1.9
		h-8v5.9h3.9V360.1z"/>
</g>
<text id="XMLID_8_" transform="matrix(1 0 0 1 87.036 186.1604)" class="st22 st23 st24">1</text>
<text id="XMLID_11_" transform="matrix(1 0 0 1 55.086 186.6372)" class="st22 st23 st24">VDDA</text>
<circle id="XMLID_82_" class="st20" cx="89.8" cy="200.9" r="7"/>
<g id="XMLID_7_">
	<polygon id="XMLID_9_" class="st34" points="93.6,207.9 93.6,207.9 93.6,207.9 	"/>
	<polygon id="XMLID_68_" class="st34" points="93.6,193.9 93.6,193.9 93.6,193.9 	"/>
	<path id="XMLID_74_" class="st34" d="M85.8,193.9h-6.3H57c-3.9,0-7,3.1-7,7c0,3.9,3.1,7,7,7h22.6h6.3c-2.5-1.4-4.1-4-4.1-7
		S83.4,195.3,85.8,193.9z"/>
</g>
<g id="XMLID_55_">
	<circle id="XMLID_57_" cx="116.7" cy="201.1" r="2.5"/>
	<path id="XMLID_56_" d="M97.7,199.9h18.9v2H97.7c0-0.3,0.1-0.7,0.1-1S97.8,200.2,97.7,199.9z"/>
</g>
<text id="XMLID_17_" transform="matrix(1 0 0 1 87.036 204.1604)" class="st22 st23 st24">2</text>
<text id="XMLID_16_" transform="matrix(1 0 0 1 55.086 204.6372)" class="st22 st23 st24">LNA</text>
<circle id="XMLID_159_" class="st20" cx="89.8" cy="218.9" r="7"/>
<polygon id="XMLID_36_" class="st49" points="93.6,225.9 93.6,225.9 93.6,225.9 "/>
<polygon id="XMLID_79_" class="st49" points="93.6,211.9 93.6,211.9 93.6,211.9 "/>
<path id="XMLID_80_" class="st0" d="M85.8,211.9h-6.3H57c-3.9,0-7,3.1-7,7c0,3.9,3.1,7,7,7h22.6h6.3c-2.5-1.4-4.1-4-4.1-7
	S83.4,213.3,85.8,211.9z"/>
<g id="XMLID_149_">
	<circle id="XMLID_151_" cx="116.7" cy="219.1" r="2.5"/>
	<path id="XMLID_150_" d="M97.7,217.9h18.9v2H97.7c0-0.3,0.1-0.7,0.1-1S97.8,218.2,97.7,217.9z"/>
</g>
<text id="XMLID_148_" transform="matrix(1 0 0 1 87.036 222.1604)" class="st22 st23 st24">3</text>
<text id="XMLID_147_" transform="matrix(1 0 0 1 51.7527 222.3423)" class="st22 st23 st38">VDD3P3</text>
<circle id="XMLID_193_" class="st20" cx="89.8" cy="236.9" r="7"/>
<path id="XMLID_111_" class="st0" d="M85.8,229.9h-6.3H57c-3.9,0-7,3.1-7,7c0,3.9,3.1,7,7,7h22.6h6.3c-2.5-1.4-4.1-4-4.1-7
	S83.4,231.3,85.8,229.9z"/>
<g id="XMLID_183_">
	<circle id="XMLID_185_" cx="116.7" cy="237.1" r="2.5"/>
	<path id="XMLID_184_" d="M97.7,235.9h18.9v2H97.7c0-0.3,0.1-0.7,0.1-1S97.8,236.2,97.7,235.9z"/>
</g>
<text id="XMLID_182_" transform="matrix(1 0 0 1 87.036 240.1604)" class="st22 st23 st24">4</text>
<text id="XMLID_181_" transform="matrix(1 0 0 1 51.7527 239.5578)" class="st22 st23 st38">VDD3P3</text>
<circle id="XMLID_227_" class="st20" cx="89.8" cy="254.9" r="7"/>
<path id="XMLID_88_" class="st0" d="M85.8,247.9h-6.3H57c-3.9,0-7,3.1-7,7c0,3.9,3.1,7,7,7h22.6h6.3c-2.5-1.4-4.1-4-4.1-7
	S83.4,249.3,85.8,247.9z"/>
<g id="XMLID_217_">
	<circle id="XMLID_219_" cx="116.7" cy="255.1" r="2.5"/>
	<path id="XMLID_218_" d="M97.7,253.9h18.9v2H97.7c0-0.3,0.1-0.7,0.1-1S97.8,254.2,97.7,253.9z"/>
</g>
<text id="XMLID_216_" transform="matrix(1 0 0 1 87.036 258.1604)" class="st22 st23 st24">5</text>
<text id="XMLID_215_" transform="matrix(1 0 0 1 51.7526 258.1603)" class="st22 st23 st42">VDD_RTC</text>
<circle id="XMLID_261_" class="st20" cx="89.8" cy="272.9" r="7"/>
<path id="XMLID_112_" class="st50" d="M85.8,265.9h-6.3H57c-3.9,0-7,3.1-7,7c0,3.9,3.1,7,7,7h22.6h6.3c-2.5-1.4-4.1-4-4.1-7
	S83.4,267.3,85.8,265.9z"/>
<g id="XMLID_251_">
	<circle id="XMLID_253_" cx="116.7" cy="273.1" r="2.5"/>
	<path id="XMLID_252_" d="M97.7,271.9h18.9v2H97.7c0-0.3,0.1-0.7,0.1-1S97.8,272.2,97.7,271.9z"/>
</g>
<text id="XMLID_250_" transform="matrix(1 0 0 1 87.036 276.1604)" class="st22 st23 st24">6</text>
<text id="XMLID_249_" transform="matrix(1 0 0 1 55.086 276.6372)" class="st22 st23 st24">ADC</text>
<circle id="XMLID_295_" class="st20" cx="89.8" cy="290.9" r="7"/>
<path id="XMLID_126_" class="st47" d="M85.8,283.9h-6.3H57c-3.9,0-7,3.1-7,7c0,3.9,3.1,7,7,7h22.6h6.3c-2.5-1.4-4.1-4-4.1-7
	S83.4,285.3,85.8,283.9z"/>
<path id="XMLID_63_" class="st47" d="M52.8,283.9h-6.3H24c-3.9,0-7,3.1-7,7c0,3.9,3.1,7,7,7h22.6h6.3c-2.5-1.4-4.1-4-4.1-7
	S50.4,285.3,52.8,283.9z"/>
<path id="XMLID_61_" class="st34" d="M52.8,265.9h-6.3H24c-3.9,0-7,3.1-7,7c0,3.9,3.1,7,7,7h22.6h6.3c-2.5-1.4-4.1-4-4.1-7
	S50.4,267.3,52.8,265.9z"/>
<path id="XMLID_65_" class="st34" d="M52.8,301.9h-6.3H24c-3.9,0-7,3.1-7,7c0,3.9,3.1,7,7,7h22.6h6.3c-2.5-1.4-4.1-4-4.1-7
	S50.4,303.3,52.8,301.9z"/>
<g id="XMLID_285_">
	<circle id="XMLID_287_" cx="116.7" cy="291.1" r="2.5"/>
	<path id="XMLID_286_" d="M97.7,289.9h18.9v2H97.7c0-0.3,0.1-0.7,0.1-1S97.8,290.2,97.7,289.9z"/>
</g>
<text id="XMLID_284_" transform="matrix(1 0 0 1 87.036 294.1604)" class="st22 st23 st24">7</text>
<text id="XMLID_283_" transform="matrix(1 0 0 1 51.7527 293.4888)" class="st22 st23 st42">CHIP_EN</text>
<text id="XMLID_763_" transform="matrix(1 0 0 1 18.7527 293.4888)" class="st22 st23 st42">CHIP_EN</text>
<circle id="XMLID_329_" class="st20" cx="89.8" cy="308.9" r="7"/>
<path id="XMLID_62_" class="st0" d="M85.8,301.9h-6.3H57c-3.9,0-7,3.1-7,7c0,3.9,3.1,7,7,7h22.6h6.3c-2.5-1.4-4.1-4-4.1-7
	S83.4,303.3,85.8,301.9z"/>
<g id="XMLID_319_">
	<circle id="XMLID_321_" cx="116.7" cy="309.1" r="2.5"/>
	<path id="XMLID_320_" d="M97.7,307.9h18.9v2H97.7c0-0.3,0.1-0.7,0.1-1S97.8,308.2,97.7,307.9z"/>
</g>
<text id="XMLID_318_" transform="matrix(1 0 0 1 87.036 312.1604)" class="st22 st23 st24">8</text>
<text id="XMLID_317_" transform="matrix(1 0 0 1 53.4611 312.6376)" class="st22 st23 st38">GPIO16</text>
<text id="XMLID_890_" transform="matrix(0 -1 1 0 277.7602 373.1592)" class="st22 st23 st24">16</text>
<text id="XMLID_562_" transform="matrix(0 -1 1 0 260.5102 404.3936)" class="st22 st23 st24">GPIO0</text>
<g id="XMLID_838_">
	<path id="XMLID_841_" class="st22" d="M260.8,422.8V422c0-0.2,0-0.4,0.1-0.5c0.1-0.1,0.2-0.1,0.4-0.1c0.2,0,0.3,0,0.4,0.1
		c0.1,0.1,0.1,0.3,0.1,0.5v2.9c0,0.2,0,0.4-0.1,0.5c-0.1,0.1-0.2,0.1-0.4,0.1c-0.2,0-0.3,0-0.4-0.1c-0.1-0.1-0.1-0.3-0.1-0.5V424
		h-4.1l0.1,0.5c0,0.1,0,0.2,0,0.2c0,0.1,0,0.1,0,0.1c0,0.1,0,0.2-0.1,0.3c-0.1,0.1-0.2,0.1-0.4,0.1c-0.1,0-0.2,0-0.3-0.1
		c-0.1-0.1-0.1-0.2-0.2-0.4l-0.3-1.2c0-0.1,0-0.2-0.1-0.2c0-0.1,0-0.1,0-0.2c0-0.1,0-0.2,0.1-0.3c0.1-0.1,0.2-0.1,0.4-0.1H260.8z"/>
	<path id="XMLID_839_" class="st22" d="M256.8,418.4h1.1c-0.1-0.2-0.1-0.4-0.1-0.6c0-0.2,0-0.3,0-0.5c0-0.6,0.2-1.1,0.6-1.4
		c0.4-0.4,0.9-0.5,1.5-0.5c0.7,0,1.2,0.2,1.6,0.7c0.4,0.4,0.6,1.1,0.6,1.9c0,0.6-0.1,1.1-0.2,1.4c-0.1,0.3-0.3,0.5-0.6,0.5
		c-0.2,0-0.3-0.1-0.4-0.2c-0.1-0.1-0.2-0.2-0.2-0.4c0-0.1,0-0.3,0.1-0.6c0.1-0.3,0.1-0.6,0.1-0.8c0-0.4-0.1-0.7-0.3-0.9
		c-0.2-0.2-0.5-0.3-0.8-0.3c-0.3,0-0.6,0.1-0.8,0.3c-0.2,0.2-0.3,0.4-0.3,0.8c0,0.2,0.1,0.5,0.2,0.7c0.1,0.3,0.2,0.5,0.2,0.6
		c0,0.2-0.1,0.3-0.2,0.4c-0.1,0.1-0.3,0.1-0.5,0.1h-2.4c-0.2,0-0.3,0-0.3-0.1c0,0-0.1-0.1-0.1-0.2v-3.2c0-0.2,0-0.3,0.1-0.4
		c0.1-0.1,0.2-0.1,0.4-0.1c0.2,0,0.3,0,0.4,0.1c0.1,0.1,0.1,0.2,0.1,0.4V418.4z"/>
</g>
<path id="XMLID_20_" class="st34" d="M256.8,408.9c-3,0-5.6-1.7-7-4.1v6.3v22.6c0,3.9,3.1,7,7,7c3.9,0,7-3.1,7-7V411v-6.3
	C262.5,407.2,259.9,408.9,256.8,408.9z"/>
<text id="XMLID_19_" transform="matrix(0 -1 1 0 259.7599 439.9053)" class="st22 st23 st38">SPI_CS2</text>
<g id="XMLID_22_">
	<path id="XMLID_27_" class="st22" d="M242.8,422.8V422c0-0.2,0-0.4,0.1-0.5c0.1-0.1,0.2-0.1,0.4-0.1c0.2,0,0.3,0,0.4,0.1
		c0.1,0.1,0.1,0.3,0.1,0.5v2.9c0,0.2,0,0.4-0.1,0.5c-0.1,0.1-0.2,0.1-0.4,0.1c-0.2,0-0.3,0-0.4-0.1c-0.1-0.1-0.1-0.3-0.1-0.5V424
		h-4.1l0.1,0.5c0,0.1,0,0.2,0,0.2c0,0.1,0,0.1,0,0.1c0,0.1,0,0.2-0.1,0.3c-0.1,0.1-0.2,0.1-0.4,0.1c-0.1,0-0.2,0-0.3-0.1
		c-0.1-0.1-0.1-0.2-0.2-0.4l-0.3-1.2c0-0.1,0-0.2-0.1-0.2c0-0.1,0-0.1,0-0.2c0-0.1,0-0.2,0.1-0.3c0.1-0.1,0.2-0.1,0.4-0.1H242.8z"/>
	<path id="XMLID_24_" class="st22" d="M238.8,418.4h1.1c-0.1-0.2-0.1-0.4-0.1-0.6c0-0.2,0-0.3,0-0.5c0-0.6,0.2-1.1,0.6-1.4
		c0.4-0.4,0.9-0.5,1.5-0.5c0.7,0,1.2,0.2,1.6,0.7c0.4,0.4,0.6,1.1,0.6,1.9c0,0.6-0.1,1.1-0.2,1.4c-0.1,0.3-0.3,0.5-0.6,0.5
		c-0.2,0-0.3-0.1-0.4-0.2c-0.1-0.1-0.2-0.2-0.2-0.4c0-0.1,0-0.3,0.1-0.6c0.1-0.3,0.1-0.6,0.1-0.8c0-0.4-0.1-0.7-0.3-0.9
		c-0.2-0.2-0.5-0.3-0.8-0.3c-0.3,0-0.6,0.1-0.8,0.3c-0.2,0.2-0.3,0.4-0.3,0.8c0,0.2,0.1,0.5,0.2,0.7c0.1,0.3,0.2,0.5,0.2,0.6
		c0,0.2-0.1,0.3-0.2,0.4c-0.1,0.1-0.3,0.1-0.5,0.1h-2.4c-0.2,0-0.3,0-0.3-0.1c0,0-0.1-0.1-0.1-0.2v-3.2c0-0.2,0-0.3,0.1-0.4
		c0.1-0.1,0.2-0.1,0.4-0.1c0.2,0,0.3,0,0.4,0.1c0.1,0.1,0.1,0.2,0.1,0.4V418.4z"/>
</g>
<path id="XMLID_33_" class="st34" d="M238.8,408.9c-3,0-5.6-1.7-7-4.1v6.3v22.6c0,3.9,3.1,7,7,7c3.9,0,7-3.1,7-7V411v-6.3
	C244.5,407.2,241.9,408.9,238.8,408.9z"/>
<text id="XMLID_29_" transform="matrix(0 -1 1 0 242.5102 437.1436)" class="st22 st23 st24">U1TXD</text>
<path id="XMLID_43_" class="st34" d="M220.8,408.9c-3,0-5.6-1.7-7-4.1v6.3v22.6c0,3.9,3.1,7,7,7c3.9,0,7-3.1,7-7V411v-6.3
	C226.5,407.2,223.9,408.9,220.8,408.9z"/>
<text id="XMLID_30_" transform="matrix(0 -1 1 0 224.5102 437.1436)" class="st22 st23 st24">MTDO</text>
<path id="XMLID_14_" class="st1" d="M220.8,441.7c-3,0-5.6-1.7-7-4.1v6.3v22.6c0,3.9,3.1,7,7,7c3.9,0,7-3.1,7-7v-22.6v-6.3
	C226.5,440,223.9,441.7,220.8,441.7z"/>
<text id="XMLID_353_" transform="matrix(0 -1 1 0 222.869 471.4248)" class="st22 st23 st42">HSPI_CS</text>
<path id="XMLID_15_" class="st1" d="M220.8,474.5c-3,0-5.6-1.7-7-4.1v6.3v22.6c0,3.9,3.1,7,7,7c3.9,0,7-3.1,7-7v-22.6v-6.3
	C226.5,472.8,223.9,474.5,220.8,474.5z"/>
<text id="XMLID_373_" transform="matrix(0 -1 1 0 224.5102 502.7314)" class="st22 st23 st24">U0RTS</text>
<path id="XMLID_21_" class="st1" d="M202.8,474.5c-3,0-5.6-1.7-7-4.1v6.3v22.6c0,3.9,3.1,7,7,7c3.9,0,7-3.1,7-7v-22.6v-6.3
	C208.5,472.8,205.9,474.5,202.8,474.5z"/>
<text id="XMLID_536_" transform="matrix(0 -1 1 0 206.5102 502.7314)" class="st22 st23 st24">U0CTS</text>
<path id="XMLID_18_" class="st1" d="M202.8,441.7c-3,0-5.6-1.7-7-4.1v6.3v22.6c0,3.9,3.1,7,7,7c3.9,0,7-3.1,7-7v-22.6v-6.3
	C208.5,440,205.9,441.7,202.8,441.7z"/>
<text id="XMLID_363_" transform="matrix(0 -1 1 0 202.8378 462.1299)"><tspan x="0" y="0" class="st22 st23 st42">HSPI</tspan><tspan x="-0.7" y="6" class="st22 st23 st42">MOSI</tspan></text>
<path id="XMLID_25_" class="st1" d="M166.8,441.7c-3,0-5.6-1.7-7-4.1v6.3v22.6c0,3.9,3.1,7,7,7c3.9,0,7-3.1,7-7v-22.6v-6.3
	C172.5,440,169.9,441.7,166.8,441.7z"/>
<text id="XMLID_383_" transform="matrix(0 -1 1 0 165.789 461.9248)"><tspan x="0" y="0" class="st22 st23 st42">HSPI</tspan><tspan x="0" y="7" class="st22 st23 st42">MISO</tspan></text>
<path id="XMLID_34_" class="st1" d="M148.8,441.7c-3,0-5.6-1.7-7-4.1v6.3v22.6c0,3.9,3.1,7,7,7c3.9,0,7-3.1,7-7v-22.6v-6.3
	C154.5,440,151.9,441.7,148.8,441.7z"/>
<text id="XMLID_393_" transform="matrix(0 -1 1 0 147.8202 460.8916)"><tspan x="0" y="0" class="st22 st23 st42">HSPI</tspan><tspan x="0" y="7" class="st22 st23 st42">CLK</tspan></text>
<path id="XMLID_76_" class="st34" d="M202.8,408.9c-3,0-5.6-1.7-7-4.1v6.3v22.6c0,3.9,3.1,7,7,7c3.9,0,7-3.1,7-7V411v-6.3
	C208.5,407.2,205.9,408.9,202.8,408.9z"/>
<text id="XMLID_42_" transform="matrix(0 -1 1 0 206.5102 437.1436)" class="st22 st23 st24">MTCK</text>
<path id="XMLID_86_" class="st34" d="M166.8,408.9c-3,0-5.6-1.7-7-4.1v6.3v22.6c0,3.9,3.1,7,7,7c3.9,0,7-3.1,7-7V411v-6.3
	C172.5,407.2,169.9,408.9,166.8,408.9z"/>
<text id="XMLID_75_" transform="matrix(0 -1 1 0 170.5102 437.1436)" class="st22 st23 st24">MTDI</text>
<path id="XMLID_178_" class="st34" d="M148.8,408.9c-3,0-5.6-1.7-7-4.1v6.3v22.6c0,3.9,3.1,7,7,7c3.9,0,7-3.1,7-7V411v-6.3
	C154.5,407.2,151.9,408.9,148.8,408.9z"/>
<text id="XMLID_85_" transform="matrix(0 -1 1 0 152.5102 437.1436)" class="st22 st23 st24">MTMS</text>
<text id="XMLID_561_" transform="matrix(0 -1 1 0 259.7602 373.1592)" class="st22 st23 st24">15</text>
<text id="XMLID_824_" transform="matrix(0 -1 1 0 242.5102 404.3936)" class="st22 st23 st24">GPIO2</text>
<text id="XMLID_563_" transform="matrix(0 -1 1 0 241.7602 373.1592)" class="st22 st23 st24">14</text>
<text id="XMLID_826_" transform="matrix(0 -1 1 0 224.5102 404.3936)" class="st22 st23 st38">GPIO15</text>
<text id="XMLID_825_" transform="matrix(0 -1 1 0 223.7602 373.1592)" class="st22 st23 st24">13</text>
<text id="XMLID_882_" transform="matrix(0 -1 1 0 206.5102 404.3936)" class="st22 st23 st38">GPIO13</text>
<text id="XMLID_827_" transform="matrix(0 -1 1 0 205.7602 373.1592)" class="st22 st23 st24">12</text>
<text id="XMLID_899_" transform="matrix(0 -1 1 0 188.5102 404.3936)" class="st22 st23 st24">VDPST</text>
<text id="XMLID_898_" transform="matrix(0 -1 1 0 187.7602 373.1592)" class="st22 st23 st24">11</text>
<text id="XMLID_953_" transform="matrix(0 -1 1 0 170.5102 404.3936)" class="st22 st23 st38">GPIO12</text>
<text id="XMLID_913_" transform="matrix(0 -1 1 0 169.7602 373.1592)" class="st22 st23 st24">10</text>
<text id="XMLID_961_" transform="matrix(0 -1 1 0 152.5102 404.3936)" class="st22 st23 st38">GPIO14</text>
<text id="XMLID_954_" transform="matrix(0 -1 1 0 151.7602 373.1592)" class="st22 st23 st24">19</text>
<text id="XMLID_988_" transform="matrix(1 0 0 1 382.1151 200.4876)"><tspan x="0" y="0" class="st22 st23 st48">SDIO</tspan><tspan x="-2.9" y="6" class="st22 st23 st48">DATA1</tspan></text>
<path id="XMLID_144_" class="st1" d="M432.3,193.9h-22.6h-6.3c2.5,1.4,4.1,4,4.1,7s-1.7,5.6-4.1,7h6.3h22.6c3.9,0,7-3.1,7-7
	C439.3,197,436.2,193.9,432.3,193.9z"/>
<text id="XMLID_1432_" transform="matrix(1 0 0 1 408.0153 203.638)" class="st22 st23 st48">SPI_MOSI</text>
<path id="XMLID_146_" class="st1" d="M432.3,211.9h-22.6h-6.3c2.5,1.4,4.1,4,4.1,7s-1.7,5.6-4.1,7h6.3h22.6c3.9,0,7-3.1,7-7
	C439.3,215,436.2,211.9,432.3,211.9z"/>
<text id="XMLID_1437_" transform="matrix(1 0 0 1 408.0154 221.8133)" class="st22 st23 st48">SPI_MISO</text>
<path id="XMLID_168_" class="st1" d="M432.3,229.9h-22.6h-6.3c2.5,1.4,4.1,4,4.1,7s-1.7,5.6-4.1,7h6.3h22.6c3.9,0,7-3.1,7-7
	C439.3,233,436.2,229.9,432.3,229.9z"/>
<text id="XMLID_1442_" transform="matrix(1 0 0 1 409.1784 238.894)" class="st22 st23 st48">SPI_CLK</text>
<path id="XMLID_169_" class="st1" d="M432.3,247.9h-22.6h-6.3c2.5,1.4,4.1,4,4.1,7s-1.7,5.6-4.1,7h6.3h22.6c3.9,0,7-3.1,7-7
	C439.3,251,436.2,247.9,432.3,247.9z"/>
<text id="XMLID_1447_" transform="matrix(1 0 0 1 409.9614 256.894)" class="st22 st23 st48">SPI_CS0</text>
<path id="XMLID_171_" class="st1" d="M432.3,265.9h-22.6h-6.3c2.5,1.4,4.1,4,4.1,7s-1.7,5.6-4.1,7h6.3h22.6c3.9,0,7-3.1,7-7
	C439.3,269,436.2,265.9,432.3,265.9z"/>
<text id="XMLID_1452_" transform="matrix(1 0 0 1 408.8755 276.4383)" class="st22 st23 st38">SPIWP</text>
<path id="XMLID_172_" class="st1" d="M432.3,283.9h-22.6h-6.3c2.5,1.4,4.1,4,4.1,7s-1.7,5.6-4.1,7h6.3h22.6c3.9,0,7-3.1,7-7
	C439.3,287,436.2,283.9,432.3,283.9z"/>
<text id="XMLID_1457_" transform="matrix(1 0 0 1 409.0559 294.4379)" class="st22 st23 st24">SPIHD</text>
<path id="XMLID_167_" class="st1" d="M465.2,193.9h-22.6h-6.3c2.5,1.4,4.1,4,4.1,7s-1.7,5.6-4.1,7h6.3h22.6c3.9,0,7-3.1,7-7
	C472.2,197,469,193.9,465.2,193.9z"/>
<text id="XMLID_728_" transform="matrix(1 0 0 1 442.2802 203.638)" class="st22 st23 st38">U1RXD</text>
<path id="XMLID_170_" class="st1" d="M465.2,265.9h-22.6h-6.3c2.5,1.4,4.1,4,4.1,7s-1.7,5.6-4.1,7h6.3h22.6c3.9,0,7-3.1,7-7
	C472.2,269,469,265.9,465.2,265.9z"/>
<text id="XMLID_757_" transform="matrix(1 0 0 1 441.4468 276.1602)" class="st22 st23 st38">HSPIWP</text>
<path id="XMLID_176_" class="st1" d="M465.2,283.9h-22.6h-6.3c2.5,1.4,4.1,4,4.1,7s-1.7,5.6-4.1,7h6.3h22.6c3.9,0,7-3.1,7-7
	C472.2,287,469,283.9,465.2,283.9z"/>
<text id="XMLID_1316_" transform="matrix(1 0 0 1 442.0728 293.6378)" class="st22 st23 st38">HSPIHD</text>
<path id="XMLID_133_" class="st34" d="M399.5,211.9h-22.6h-6.3c2.5,1.4,4.1,4,4.1,7s-1.7,5.6-4.1,7h6.3h22.6c3.9,0,7-3.1,7-7
	C406.5,215,403.4,211.9,399.5,211.9z"/>
<text id="XMLID_1024_" transform="matrix(1 0 0 1 382.1151 218.4876)"><tspan x="0" y="0" class="st22 st23 st48">SDIO</tspan><tspan x="-2.9" y="6" class="st22 st23 st48">DATA0</tspan></text>
<path id="XMLID_135_" class="st34" d="M399.5,229.9h-22.6h-6.3c2.5,1.4,4.1,4,4.1,7s-1.7,5.6-4.1,7h6.3h22.6c3.9,0,7-3.1,7-7
	C406.5,233,403.4,229.9,399.5,229.9z"/>
<text id="XMLID_1094_" transform="matrix(1 0 0 1 382.1151 236.4876)"><tspan x="0" y="0" class="st22 st23 st48">SDIO</tspan><tspan x="1.3" y="6" class="st22 st23 st48">CLK</tspan></text>
<path id="XMLID_136_" class="st34" d="M399.5,247.9h-22.6h-6.3c2.5,1.4,4.1,4,4.1,7s-1.7,5.6-4.1,7h6.3h22.6c3.9,0,7-3.1,7-7
	C406.5,251,403.4,247.9,399.5,247.9z"/>
<text id="XMLID_1550_" transform="matrix(1 0 0 1 382.1151 254.4876)"><tspan x="0" y="0" class="st22 st23 st48">SDIO</tspan><tspan x="0.3" y="6" class="st22 st23 st48">CMD</tspan></text>
<path id="XMLID_137_" class="st34" d="M399.5,265.9h-22.6h-6.3c2.5,1.4,4.1,4,4.1,7s-1.7,5.6-4.1,7h6.3h22.6c3.9,0,7-3.1,7-7
	C406.5,269,403.4,265.9,399.5,265.9z"/>
<text id="XMLID_1556_" transform="matrix(1 0 0 1 382.1151 272.4876)"><tspan x="0" y="0" class="st22 st23 st48">SDIO</tspan><tspan x="-2.9" y="6" class="st22 st23 st48">DATA3</tspan></text>
<path id="XMLID_142_" class="st34" d="M399.5,283.9h-22.6h-6.3c2.5,1.4,4.1,4,4.1,7s-1.7,5.6-4.1,7h6.3h22.6c3.9,0,7-3.1,7-7
	C406.5,287,403.4,283.9,399.5,283.9z"/>
<text id="XMLID_1562_" transform="matrix(1 0 0 1 382.1151 290.4876)"><tspan x="0" y="0" class="st22 st23 st48">SDIO</tspan><tspan x="-2.9" y="6" class="st22 st23 st48">DATA2</tspan></text>
<text id="XMLID_762_" transform="matrix(1 0 0 1 22.086 276.6372)" class="st22 st23 st24">TOUT</text>
<text id="XMLID_764_" transform="matrix(1 0 0 1 22.086 312.6372)" class="st22 st23 st24">TOUT</text>
<path id="XMLID_377_" d="M352.2,405.4c-0.1-0.4-0.1-0.8-0.1-1.2c0-0.4,0-0.7,0.1-1h-6.3v4.4h-2.1v-8.9h-6.6v4.4h-6.1v2.2h8.3v-4.4
	h2.1v8.9h6.6v-4.4H352.2z"/>
<text id="XMLID_371_" transform="matrix(1 0 0 1 354.4994 427.8858)" class="st51 st52">POWER</text>
<g id="XMLID_370_">
	<path id="XMLID_352_" class="st0" d="M329.7,440.3c0,3.1,2.7,5.6,6,5.6h10.5c3.3,0,6-2.5,6-5.6s-2.7-5.6-6-5.6h-10.5
		C332.4,434.6,329.7,437.2,329.7,440.3z"/>
</g>
<g id="XMLID_369_">
	<path id="XMLID_164_" class="st30" d="M329.7,424.5c0,3.1,2.7,5.6,6,5.6h10.5c3.3,0,6-2.5,6-5.6s-2.7-5.6-6-5.6h-10.5
		C332.4,418.9,329.7,421.4,329.7,424.5z"/>
</g>
<text id="XMLID_368_" transform="matrix(1 0 0 1 356.7494 443.6358)" class="st51 st52">I/O</text>
<g id="XMLID_367_">
	<path id="XMLID_81_" class="st50" d="M329.7,456c0,3.1,2.7,5.6,6,5.6h10.5c3.3,0,6-2.5,6-5.6s-2.7-5.6-6-5.6h-10.5
		C332.4,450.4,329.7,452.9,329.7,456z"/>
</g>
<text id="XMLID_362_" transform="matrix(1 0 0 1 356.7494 459.3858)" class="st51 st52">ADC</text>
<g id="XMLID_361_">
	<path id="XMLID_127_" class="st47" d="M329.7,471.8c0,3.1,2.7,5.6,6,5.6h10.5c3.3,0,6-2.5,6-5.6s-2.7-5.6-6-5.6h-10.5
		C332.4,466.1,329.7,468.7,329.7,471.8z"/>
</g>
<text id="XMLID_360_" transform="matrix(1 0 0 1 356.7494 475.1358)" class="st51 st52">CONTROL</text>
<g id="XMLID_359_">
	<path id="XMLID_186_" class="st3" d="M329.7,487.5c0,3.1,2.7,5.6,6,5.6h10.5c3.3,0,6-2.5,6-5.6s-2.7-5.6-6-5.6h-10.5
		C332.4,481.9,329.7,484.4,329.7,487.5z"/>
	<path id="XMLID_158_" class="st4" d="M329.7,487.5c0,3.1,2.7,5.6,6,5.6h10.5c3.3,0,6-2.5,6-5.6s-2.7-5.6-6-5.6h-10.5
		C332.4,481.9,329.7,484.4,329.7,487.5z"/>
</g>
<text id="XMLID_51_" transform="matrix(1 0 0 1 356.7494 490.8858)" class="st51 st52">N/C</text>
<g id="XMLID_49_">
	<path id="XMLID_198_" class="st34" d="M329.7,352.2c0,3.1,2.7,5.6,6,5.6h10.5c3.3,0,6-2.5,6-5.6s-2.7-5.6-6-5.6h-10.5
		C332.4,346.5,329.7,349.1,329.7,352.2z"/>
</g>
<text id="XMLID_48_" transform="matrix(1 0 0 1 356.7494 355.5373)" class="st51 st52">SP. FUNCTION(S)</text>
<g id="XMLID_47_">
	<path id="XMLID_155_" class="st1" d="M329.7,367.9c0,3.1,2.7,5.6,6,5.6h10.5c3.3,0,6-2.5,6-5.6s-2.7-5.6-6-5.6h-10.5
		C332.4,362.3,329.7,364.8,329.7,367.9z"/>
</g>
<text id="XMLID_46_" transform="matrix(1 0 0 1 356.7494 371.2873)" class="st51 st52">COMM. INTERFACE</text>
<g id="XMLID_41_">
	<path id="XMLID_153_" class="st20" d="M329.7,383.7c0,3.1,2.7,5.6,6,5.6h10.5c3.3,0,6-2.5,6-5.6s-2.7-5.6-6-5.6h-10.5
		C332.4,378,329.7,380.6,329.7,383.7z"/>
</g>
<text id="XMLID_40_" transform="matrix(1 0 0 1 356.7494 387.0373)" class="st51 st52">PIN NUMBER</text>
<text id="XMLID_39_" transform="matrix(1 0 0 1 356.7494 405.4709)"><tspan x="0" y="0" class="st51 st52">PW</tspan><tspan x="15.8" y="0" class="st51 st52">M</tspan></text>
<g id="XMLID_38_">
	<path id="XMLID_553_" class="st22" d="M330.7,102.6C330.7,102.5,330.7,102.5,330.7,102.6l-3.7-5.9c0,0,0,0,0,0
		c-0.1-0.2-0.3-0.3-0.6-0.3c-0.2,0-0.4,0.1-0.5,0.3c0,0,0,0,0,0l-3.6,5.9c0,0,0,0,0,0c-0.1,0.1-0.1,0.2-0.1,0.3
		c0,0.4,0.3,0.7,0.6,0.7c0,0,0,0,0.1,0h7.3c0,0,0,0,0.1,0c0.3,0,0.6-0.3,0.6-0.7C330.8,102.8,330.8,102.7,330.7,102.6"/>
	<path id="XMLID_552_" class="st53" d="M330.5,102.9c0,0.2-0.2,0.4-0.4,0.4v0h-7.3v0c0,0,0,0,0,0c-0.2,0-0.4-0.2-0.4-0.4
		c0-0.1,0-0.1,0.1-0.2l0,0l3.6-5.9l0,0c0.1-0.1,0.2-0.2,0.3-0.2c0.1,0,0.3,0.1,0.3,0.2l0,0l3.6,5.9l0,0
		C330.5,102.7,330.5,102.8,330.5,102.9"/>
	<path id="XMLID_551_" class="st54" d="M327,98.7c0-0.3-0.2-0.5-0.5-0.5c-0.3,0-0.5,0.2-0.5,0.5v1.9c0,0.3,0.2,0.5,0.5,0.5
		c0.3,0,0.5-0.2,0.5-0.5V98.7z"/>
	<path id="XMLID_550_" class="st54" d="M326.5,101.5c-0.3,0-0.5,0.2-0.5,0.5c0,0.3,0.2,0.5,0.5,0.5c0.3,0,0.5-0.2,0.5-0.5
		C327,101.7,326.8,101.5,326.5,101.5"/>
	<text id="XMLID_527_" transform="matrix(1 0 0 1 335.4613 103.6649)" class="st51 st24">Dng trn mi chn 6mA,ln nht 12mA</text>
	<path id="XMLID_513_" class="st22" d="M330.7,120.5C330.7,120.5,330.7,120.5,330.7,120.5l-3.6-5.9c0,0,0,0,0,0
		c-0.1-0.2-0.3-0.3-0.6-0.3c-0.2,0-0.4,0.1-0.5,0.3c0,0,0,0,0,0l-3.6,5.9c0,0,0,0,0,0c-0.1,0.1-0.1,0.2-0.1,0.3
		c0,0.4,0.3,0.7,0.6,0.7c0,0,0,0,0.1,0h7.2c0,0,0,0,0.1,0c0.3,0,0.6-0.3,0.6-0.7C330.8,120.7,330.8,120.6,330.7,120.5"/>
	<path id="XMLID_511_" class="st55" d="M330.5,120.9c0,0.2-0.2,0.4-0.4,0.4v0h-7.2v0l0,0c-0.2,0-0.4-0.2-0.4-0.4
		c0-0.1,0-0.1,0.1-0.2l0,0l3.6-5.9l0,0c0.1-0.1,0.2-0.2,0.3-0.2c0.1,0,0.3,0.1,0.3,0.2l0,0l3.6,5.9l0,0
		C330.5,120.7,330.5,120.8,330.5,120.9"/>
	<path id="XMLID_453_" class="st54" d="M327,116.7c0-0.3-0.2-0.5-0.5-0.5c-0.3,0-0.5,0.2-0.5,0.5v1.9c0,0.3,0.2,0.5,0.5,0.5
		c0.3,0,0.5-0.2,0.5-0.5V116.7z"/>
	<path id="XMLID_447_" class="st54" d="M326.5,119.5c-0.3,0-0.5,0.2-0.5,0.5c0,0.3,0.2,0.5,0.5,0.5c0.3,0,0.5-0.2,0.5-0.5
		C327,119.7,326.8,119.5,326.5,119.5"/>
	<text id="XMLID_382_" transform="matrix(1 0 0 1 335.4613 121.6649)"><tspan x="0" y="0" class="st51 st24">Cho ch  ng ni tt GPIO16 v</tspan><tspan x="0" y="12" class="st51 st24">EXT_RSTB.  wakeup, GPIO16 s xut mc </tspan><tspan x="0" y="24" class="st51 st24">THP khi ng li h thng</tspan></text>
	<path id="XMLID_381_" class="st22" d="M330.7,157C330.7,157,330.7,157,330.7,157l-3.6-5.9c0,0,0,0,0,0c-0.1-0.2-0.3-0.3-0.6-0.3
		c-0.2,0-0.4,0.1-0.5,0.3c0,0,0,0,0,0l-3.6,5.9c0,0,0,0,0,0c-0.1,0.1-0.1,0.2-0.1,0.3c0,0.4,0.3,0.7,0.6,0.7c0,0,0,0,0.1,0h7.2
		c0,0,0,0,0.1,0c0.3,0,0.6-0.3,0.6-0.7C330.8,157.2,330.8,157.1,330.7,157"/>
	<path id="XMLID_380_" class="st55" d="M330.5,157.4c0,0.2-0.2,0.4-0.4,0.4v0h-7.2v0l0,0c-0.2,0-0.4-0.2-0.4-0.4
		c0-0.1,0-0.1,0.1-0.2l0,0l3.6-5.9l0,0c0.1-0.1,0.2-0.2,0.3-0.2c0.1,0,0.3,0.1,0.3,0.2l0,0l3.6,5.9l0,0
		C330.5,157.2,330.5,157.3,330.5,157.4"/>
	<path id="XMLID_379_" class="st54" d="M327,153.2c0-0.3-0.2-0.5-0.5-0.5c-0.3,0-0.5,0.2-0.5,0.5v1.9c0,0.3,0.2,0.5,0.5,0.5
		c0.3,0,0.5-0.2,0.5-0.5V153.2z"/>
	<path id="XMLID_378_" class="st54" d="M326.5,156c-0.3,0-0.5,0.2-0.5,0.5c0,0.3,0.2,0.5,0.5,0.5c0.3,0,0.5-0.2,0.5-0.5
		C327,156.2,326.8,156,326.5,156"/>
	<text id="XMLID_372_" transform="matrix(1 0 0 1 335.4613 158.1649)"><tspan x="0" y="0" class="st51 st24">Khi khi ng/khi ng li/weakup, gi GPIO15 THP</tspan><tspan x="0" y="12" class="st51 st24">v GPIO2 CAO.</tspan></text>
	<text id="XMLID_69_" transform="matrix(1 0 0 1 322.1693 89.5448)" class="st51 st52">LU :</text>
</g>
</svg>
